<svg width="118" height="40" viewBox="0 0 118 40" fill="none" xmlns="http://www.w3.org/2000/svg">
<path d="M5.6858 0H113.121C115.741 0 117.871 2.152 117.871 4.8V35.2C117.871 37.848 115.741 40 113.121 40H5.6858C3.06525 40 0.935547 37.848 0.935547 35.2V4.8C0.935547 2.152 3.06525 0 5.6858 0Z" fill="#191F2B"/>
<path d="M28.6488 19.1622C28.6265 16.5087 30.8229 15.219 30.9194 15.1597C29.6728 13.3512 27.7435 13.0992 27.0683 13.0769C25.4506 12.9065 23.8775 14.0479 23.0539 14.0479C22.2154 14.0479 20.9391 13.0992 19.5738 13.1214C17.8152 13.151 16.1605 14.1665 15.2626 15.7527C13.4002 18.9769 14.7877 23.7205 16.576 26.3296C17.4739 27.6044 18.5127 29.0349 19.8855 28.9831C21.2211 28.9312 21.7257 28.1307 23.3359 28.1307C24.9386 28.1307 25.4061 28.9831 26.8011 28.9534C28.2407 28.9312 29.1385 27.6711 30.0067 26.3814C31.0381 24.9213 31.4536 23.4759 31.4685 23.4018C31.4314 23.387 28.6784 22.3345 28.6488 19.1622Z" fill="white"/>
<path d="M26.0141 11.365C26.7339 10.4682 27.2236 9.24521 27.09 8C26.0512 8.04447 24.7452 8.71896 23.9958 9.60099C23.3354 10.3792 22.7418 11.6467 22.8902 12.84C24.0626 12.929 25.2646 12.2471 26.0141 11.365Z" fill="white"/>
<path d="M48.0298 28.7981H46.1599L45.1359 25.5813H41.5742L40.6021 28.7981H38.7842L42.3088 17.8506H44.4904L48.0298 28.7981ZM44.8317 24.2323L43.9042 21.3787C43.8077 21.0822 43.6222 20.4003 43.3551 19.3182H43.318C43.2067 19.7851 43.036 20.4744 42.7985 21.3787L41.8858 24.2323H44.8317Z" fill="white"/>
<path d="M57.0897 24.7585C57.0897 26.1001 56.7261 27.16 55.9915 27.9382C55.3385 28.635 54.5223 28.9759 53.5577 28.9759C52.5114 28.9759 51.762 28.6053 51.3019 27.8567V32H49.5433V23.4985C49.5433 22.6535 49.5211 21.7937 49.4766 20.9043H51.02L51.1164 22.1569H51.1461C51.7323 21.2156 52.6227 20.7412 53.81 20.7412C54.7449 20.7412 55.5166 21.1118 56.1399 21.8456C56.7781 22.5868 57.0897 23.5504 57.0897 24.7585ZM55.3014 24.8178C55.3014 24.047 55.1308 23.4169 54.782 22.9203C54.4036 22.4015 53.8916 22.1421 53.2535 22.1421C52.8231 22.1421 52.4298 22.2903 52.0736 22.572C51.7249 22.861 51.4874 23.2316 51.3836 23.6986C51.3316 23.9135 51.3019 24.0914 51.3019 24.2323V25.5516C51.3019 26.1223 51.48 26.6115 51.8288 27.0043C52.1775 27.3972 52.6376 27.5973 53.2015 27.5973C53.8619 27.5973 54.3739 27.3379 54.7449 26.8339C55.1159 26.3224 55.3014 25.6554 55.3014 24.8178Z" fill="white"/>
<path d="M66.1717 24.7585C66.1717 26.1001 65.8082 27.16 65.0736 27.9382C64.4206 28.635 63.6043 28.9759 62.6397 28.9759C61.5935 28.9759 60.844 28.6053 60.384 27.8567V32H58.6254V23.4985C58.6254 22.6535 58.6031 21.7937 58.5586 20.9043H60.102L60.1985 22.1569H60.2281C60.8143 21.2156 61.7048 20.7412 62.892 20.7412C63.827 20.7412 64.5987 21.1118 65.222 21.8456C65.8601 22.5868 66.1717 23.5504 66.1717 24.7585ZM64.3835 24.8178C64.3835 24.047 64.2128 23.4169 63.8641 22.9203C63.4856 22.4015 62.9736 22.1421 62.3355 22.1421C61.9051 22.1421 61.5118 22.2903 61.1557 22.572C60.8069 22.861 60.5769 23.2316 60.4656 23.6986C60.4137 23.9135 60.384 24.0914 60.384 24.2323V25.5516C60.384 26.1223 60.5621 26.6115 60.9108 27.0043C61.2596 27.3972 61.7196 27.5973 62.2835 27.5973C62.944 27.5973 63.4634 27.3379 63.827 26.8339C64.2054 26.3224 64.3835 25.6554 64.3835 24.8178Z" fill="white"/>
<path d="M76.3384 25.7299C76.3384 26.6638 76.0119 27.4199 75.3663 28.0054C74.654 28.6429 73.6596 28.9616 72.3834 28.9616C71.2035 28.9616 70.2612 28.7318 69.5488 28.2797L69.9569 26.8195C70.7286 27.2716 71.5746 27.5014 72.4947 27.5014C73.1551 27.5014 73.6745 27.3532 74.0381 27.0567C74.4091 26.7602 74.5946 26.36 74.5946 25.8634C74.5946 25.4186 74.4388 25.048 74.142 24.7441C73.8377 24.4402 73.3332 24.1586 72.6282 23.8992C70.6915 23.1802 69.7343 22.1351 69.7343 20.7639C69.7343 19.867 70.0757 19.1332 70.7509 18.5551C71.4262 17.9844 72.324 17.6953 73.4445 17.6953C74.4388 17.6953 75.2698 17.8658 75.9302 18.2142L75.485 19.6373C74.8617 19.3037 74.1642 19.1332 73.3777 19.1332C72.7618 19.1332 72.2721 19.2889 71.9233 19.5854C71.6339 19.8596 71.4855 20.1857 71.4855 20.5786C71.4855 21.0085 71.6562 21.3717 71.9901 21.6459C72.2795 21.9053 72.8137 22.187 73.5854 22.4909C74.5278 22.8689 75.2179 23.3136 75.6631 23.825C76.1157 24.3365 76.3384 24.9739 76.3384 25.7299Z" fill="white"/>
<path d="M82.155 22.224H80.2183V26.056C80.2183 27.0269 80.5596 27.5161 81.2423 27.5161C81.5539 27.5161 81.8137 27.4865 82.0214 27.4346L82.0734 28.7688C81.7246 28.8948 81.272 28.9615 80.708 28.9615C80.0105 28.9615 79.4763 28.7465 79.083 28.324C78.6897 27.9016 78.4968 27.19 78.4968 26.1968V22.2165H77.3467V20.9046H78.4968V19.4593L80.2183 18.9404V20.9046H82.155V22.224Z" fill="white"/>
<path d="M90.8673 24.7886C90.8673 26.0041 90.5186 26.9973 89.8285 27.7756C89.1013 28.5761 88.1366 28.9763 86.9346 28.9763C85.777 28.9763 84.8494 28.5909 84.1594 27.8275C83.4693 27.064 83.1279 26.0931 83.1279 24.922C83.1279 23.699 83.4841 22.6984 84.189 21.9201C84.9014 21.1419 85.8586 20.749 87.0607 20.749C88.2183 20.749 89.1532 21.1344 89.8582 21.9053C90.5334 22.6465 90.8673 23.6101 90.8673 24.7886ZM89.0493 24.8256C89.0493 24.0992 88.8935 23.484 88.5819 22.9652C88.2108 22.3352 87.684 22.0239 87.0013 22.0239C86.2964 22.0239 85.7547 22.3352 85.3911 22.9652C85.0721 23.484 84.9236 24.1141 84.9236 24.8627C84.9236 25.5891 85.0795 26.2117 85.3911 26.7231C85.7696 27.3531 86.3038 27.6644 86.9865 27.6644C87.6543 27.6644 88.1812 27.3457 88.567 26.7083C88.8861 26.1746 89.0493 25.552 89.0493 24.8256Z" fill="white"/>
<path d="M96.5807 22.446C96.41 22.4163 96.2245 22.4015 96.0242 22.4015C95.4083 22.4015 94.926 22.6313 94.5921 23.0982C94.3027 23.5059 94.1543 24.0321 94.1543 24.6548V28.7981H92.3957V23.3873C92.3957 22.4756 92.3809 21.6455 92.3438 20.9043H93.8723L93.9391 22.4163H93.991C94.1766 21.8975 94.4659 21.475 94.8666 21.1637C95.2599 20.882 95.6829 20.7412 96.1355 20.7412C96.2987 20.7412 96.4471 20.756 96.5733 20.7709L96.5807 22.446Z" fill="white"/>
<path d="M104.431 24.4776C104.431 24.7889 104.409 25.0557 104.364 25.2707H99.0961C99.1184 26.0489 99.3706 26.6493 99.8604 27.057C100.306 27.4202 100.877 27.6055 101.582 27.6055C102.361 27.6055 103.073 27.4795 103.711 27.2349L103.986 28.4504C103.237 28.7766 102.354 28.9396 101.337 28.9396C100.113 28.9396 99.148 28.5764 98.4505 27.8575C97.753 27.1385 97.4043 26.1675 97.4043 24.9594C97.4043 23.7735 97.7308 22.7803 98.3838 21.9872C99.0664 21.1422 99.9865 20.7197 101.144 20.7197C102.279 20.7197 103.148 21.1422 103.726 21.9872C104.194 22.6691 104.431 23.4918 104.431 24.4776ZM102.754 24.0255C102.769 23.5066 102.65 23.0545 102.413 22.6765C102.109 22.1873 101.641 21.9427 101.018 21.9427C100.447 21.9427 99.9791 22.1799 99.6229 22.6543C99.3335 23.0323 99.1555 23.4918 99.1035 24.0181L102.754 24.0255Z" fill="white"/>
<path d="M43.9851 13.9368H43.065L42.5604 12.358H40.8093L40.327 13.9368H39.4365L41.1654 8.55566H42.234L43.9851 13.9368ZM42.4046 11.6909L41.952 10.2827C41.9075 10.1418 41.8184 9.80088 41.6774 9.26722H41.6626C41.6032 9.49699 41.529 9.83053 41.4029 10.2827L40.9577 11.6909H42.4046Z" fill="white"/>
<path d="M48.3193 10.0537L46.8501 13.9376H46.0116L44.5869 10.0537H45.5144L46.1748 12.1068C46.2861 12.4478 46.3826 12.7739 46.4568 13.0852H46.4791C46.5458 12.8036 46.6423 12.4774 46.761 12.1068L47.414 10.0537H48.3193Z" fill="white"/>
<path d="M51.4497 13.9369L51.3829 13.4922H51.3606C51.0935 13.848 50.7151 14.0259 50.2253 14.0259C49.5278 14.0259 49.0381 13.5367 49.0381 12.8844C49.0381 11.9283 49.8691 11.4317 51.3087 11.4317V11.3575C51.3087 10.8461 51.0341 10.5941 50.4999 10.5941C50.114 10.5941 49.7801 10.6905 49.4833 10.8832L49.3052 10.3199C49.6614 10.0975 50.114 9.98633 50.6408 9.98633C51.6574 9.98633 52.1694 10.52 52.1694 11.5947V13.0253C52.1694 13.4181 52.1842 13.722 52.2288 13.9518L51.4497 13.9369ZM51.3309 12.0024C50.3737 12.0024 49.8914 12.2322 49.8914 12.7881C49.8914 13.1957 50.1363 13.3959 50.485 13.3959C50.9228 13.3959 51.3309 13.0623 51.3309 12.6028V12.0024Z" fill="white"/>
<path d="M54.0911 9.41601C53.8017 9.41601 53.5791 9.19365 53.5791 8.89717C53.5791 8.60069 53.8091 8.38574 54.106 8.38574C54.4028 8.38574 54.6403 8.60069 54.6328 8.89717C54.6328 9.20848 54.4102 9.41601 54.0911 9.41601ZM53.6756 10.0534H54.5364V13.9299H53.6756V10.0534Z" fill="white"/>
<path d="M56.0732 8.27441H56.9331V13.9298H56.0732V8.27441Z" fill="white"/>
<path d="M60.5991 13.9375L60.5323 13.4928H60.51C60.2429 13.8486 59.8645 14.0264 59.3747 14.0264C58.6772 14.0264 58.1875 13.5373 58.1875 12.885C58.1875 11.9288 59.0186 11.4322 60.4581 11.4322V11.3581C60.4581 10.8467 60.1836 10.5947 59.6493 10.5947C59.2634 10.5947 58.9295 10.691 58.6327 10.8838L58.4546 10.313C58.8108 10.0907 59.2634 9.97949 59.7903 9.97949C60.8069 9.97949 61.3189 10.5132 61.3189 11.5879V13.0184C61.3189 13.4112 61.3337 13.7151 61.3708 13.9449H60.5991V13.9375ZM60.4804 12.003C59.5231 12.003 59.0408 12.2327 59.0408 12.7886C59.0408 13.1963 59.2857 13.3964 59.6345 13.3964C60.0722 13.3964 60.4804 13.0629 60.4804 12.6033V12.003Z" fill="white"/>
<path d="M64.8216 14.0261C64.2725 14.0261 63.8644 13.7964 63.5973 13.3368H63.5824L63.5305 13.9372H62.7959C62.8182 13.6259 62.8256 13.2775 62.8256 12.8921V8.27441H63.6937V10.624H63.7086C63.9683 10.1941 64.3764 9.97918 64.9478 9.97918C65.8827 9.97918 66.5357 10.7797 66.5357 11.9434C66.5357 13.1441 65.8085 14.0261 64.8216 14.0261ZM64.6435 10.6537C64.1464 10.6537 63.6937 11.0836 63.6937 11.6839V12.3658C63.6937 12.8995 64.1019 13.3368 64.6287 13.3368C65.2742 13.3368 65.6601 12.8106 65.6601 11.973C65.6601 11.1873 65.2594 10.6537 64.6435 10.6537Z" fill="white"/>
<path d="M67.8115 8.27441H68.6714V13.9298H67.8115V8.27441Z" fill="white"/>
<path d="M73.3699 12.2023H70.7803C70.7951 12.9361 71.2848 13.3512 72.0046 13.3512C72.3905 13.3512 72.7392 13.2845 73.0508 13.1659L73.1844 13.7662C72.8208 13.9293 72.3905 14.0034 71.8859 14.0034C70.669 14.0034 69.9492 13.24 69.9492 12.0466C69.9492 10.8607 70.6838 9.96387 71.7894 9.96387C72.7763 9.96387 73.407 10.6977 73.407 11.8095C73.407 11.9651 73.3996 12.0985 73.3699 12.2023ZM72.5834 11.5871C72.5834 10.9867 72.2792 10.5642 71.7301 10.5642C71.2329 10.5642 70.8471 10.9941 70.7877 11.5871H72.5834Z" fill="white"/>
<path d="M78.6014 14.0264C77.4661 14.0264 76.7314 13.1815 76.7314 12.0326C76.7314 10.8319 77.4809 9.97949 78.6681 9.97949C79.7886 9.97949 80.5381 10.7874 80.5381 11.9659C80.5381 13.1741 79.7663 14.0264 78.6014 14.0264ZM78.6385 10.6095C78.0152 10.6095 77.6145 11.1951 77.6145 12.003C77.6145 12.8035 78.0226 13.3816 78.631 13.3816C79.2395 13.3816 79.6476 12.759 79.6476 11.9807C79.6402 11.1951 79.2469 10.6095 78.6385 10.6095Z" fill="white"/>
<path d="M85.1748 13.9371H84.3141V11.7061C84.3141 11.0168 84.0469 10.6758 83.5275 10.6758C83.0155 10.6758 82.6668 11.1131 82.6668 11.6246V13.9297H81.806V11.165C81.806 10.8241 81.7986 10.4535 81.7764 10.0532H82.5332L82.5703 10.6536H82.5926C82.8226 10.2385 83.2975 9.97168 83.8243 9.97168C84.6405 9.97168 85.1748 10.5943 85.1748 11.6097V13.9371Z" fill="white"/>
<path d="M90.8209 10.7057H89.8711V12.5883C89.8711 13.0701 90.0418 13.3073 90.3757 13.3073C90.5241 13.3073 90.6577 13.2924 90.7616 13.2702L90.7838 13.9225C90.6132 13.9892 90.3905 14.0188 90.116 14.0188C89.4334 14.0188 89.0327 13.6408 89.0327 12.6624V10.7057H88.4688V10.0608H89.0327V9.34926L89.8786 9.08984V10.0534H90.8283V10.7057" fill="white"/>
<path d="M95.3921 13.9372H94.5314V11.721C94.5314 11.0243 94.2643 10.6759 93.7449 10.6759C93.2997 10.6759 92.8842 10.9798 92.8842 11.595V13.9298H92.0234V8.27441H92.8842V10.6018H92.899C93.1735 10.1793 93.5594 9.97176 94.064 9.97176C94.8876 9.97176 95.3921 10.6092 95.3921 11.6246V13.9372Z" fill="white"/>
<path d="M99.8005 12.2023H97.2109C97.2258 12.9361 97.7155 13.3512 98.4352 13.3512C98.8211 13.3512 99.1698 13.2845 99.4815 13.1659L99.615 13.7662C99.2514 13.9293 98.8211 14.0034 98.3165 14.0034C97.0996 14.0034 96.3799 13.24 96.3799 12.0466C96.3799 10.8607 97.1145 9.96387 98.2201 9.96387C99.2069 9.96387 99.8376 10.6977 99.8376 11.8095C99.8376 11.9651 99.8302 12.0985 99.8005 12.2023ZM99.014 11.5871C99.014 10.9867 98.7098 10.5642 98.1607 10.5642C97.6635 10.5642 97.2703 10.9941 97.2184 11.5871H99.014Z" fill="white"/>
</svg>
