<svg width="160" height="30" viewBox="0 0 160 30" fill="none" xmlns="http://www.w3.org/2000/svg">
<g clip-path="url(#clip0_3189_4075)">
<path d="M47.5529 25.1874C44.8502 25.1874 42.6196 24.2911 40.8612 22.4985C39.9977 21.6276 39.3195 20.5914 38.8672 19.4523C38.415 18.3132 38.1981 17.0946 38.2296 15.8697C38.2296 13.2252 39.1107 11.0117 40.8731 9.22897C42.6354 7.44628 44.866 6.55888 47.5648 6.56677C49.133 6.55282 50.6786 6.93978 52.0546 7.69081C53.3868 8.41036 54.4989 9.47647 55.273 10.776L52.2206 12.5508C51.7816 11.7556 51.1233 11.1027 50.3239 10.6695C49.4738 10.21 48.5195 9.97677 47.5529 9.99213C45.8104 9.99213 44.4046 10.5384 43.3358 11.6309C42.2669 12.7233 41.7325 14.1392 41.7325 15.8785C41.7325 17.6021 42.2669 19.0101 43.3358 20.1026C44.4046 21.1951 45.8104 21.7413 47.5529 21.7413C48.5234 21.7543 49.4812 21.5202 50.3357 21.061C51.1327 20.6407 51.7882 19.9957 52.2206 19.2063L55.273 20.9811C54.4985 22.2716 53.3911 23.3309 52.0664 24.0485C50.6854 24.81 49.1306 25.2023 47.5529 25.1874Z" fill="white"/>
<path d="M68.2986 23.2289C67.3508 24.1831 66.1398 24.8339 64.8199 25.0984C63.5001 25.3629 62.1312 25.2291 60.8879 24.7141C59.6445 24.1991 58.5829 23.3262 57.8385 22.2067C57.0941 21.0871 56.7006 19.7717 56.7081 18.4281C56.7081 16.6323 57.4228 14.9101 58.695 13.6404C59.9672 12.3706 61.6926 11.6572 63.4917 11.6572C65.2908 11.6572 67.0163 12.3706 68.2884 13.6404C69.5606 14.9101 70.2753 16.6323 70.2753 18.4281C70.2935 19.3208 70.1273 20.2078 69.7873 21.0337C69.4472 21.8596 68.9405 22.6069 68.2986 23.2289ZM61.0053 20.9631C61.3266 21.2905 61.7123 21.5481 62.1382 21.7196C62.564 21.8912 63.0208 21.973 63.4799 21.9599C63.9405 21.972 64.3988 21.8898 64.8264 21.7183C65.254 21.5469 65.642 21.2899 65.9663 20.9631C66.2993 20.6319 66.5608 20.2361 66.7346 19.8C66.9084 19.364 66.9909 18.8971 66.9769 18.4281C66.9924 17.9603 66.9117 17.4944 66.74 17.0589C66.5682 16.6235 66.309 16.2277 65.9781 15.896C65.654 15.5689 65.2661 15.3114 64.8385 15.1395C64.4109 14.9675 63.9526 14.8847 63.4917 14.8962C63.0325 14.8837 62.5756 14.9661 62.1498 15.1381C61.724 15.3102 61.3383 15.5682 61.0171 15.896C60.6888 16.2291 60.4317 16.6253 60.2616 17.0605C60.0914 17.4958 60.0117 17.9611 60.0273 18.4281C60.0101 18.8947 60.0879 19.3599 60.256 19.7956C60.4241 20.2314 60.679 20.6285 61.0053 20.9631Z" fill="white"/>
<path d="M74.2498 10.4952C73.7143 10.4883 73.2028 10.2729 72.8241 9.89494C72.4454 9.51699 72.2296 9.00636 72.2227 8.4719C72.2205 8.20581 72.2718 7.94199 72.3736 7.69606C72.4754 7.45014 72.6257 7.22712 72.8154 7.04023C72.9973 6.84455 73.2179 6.68878 73.4633 6.58286C73.7087 6.47693 73.9735 6.42316 74.2409 6.42496C74.512 6.4215 74.7809 6.47441 75.0304 6.58034C75.2799 6.68626 75.5046 6.84289 75.6901 7.04023C75.8799 7.22712 76.0301 7.45014 76.1319 7.69606C76.2338 7.94199 76.2851 8.20581 76.2828 8.4719C76.2859 8.73679 76.235 8.99953 76.1331 9.24413C76.0312 9.48874 75.8805 9.71008 75.6901 9.8947C75.5031 10.0867 75.2791 10.2389 75.0316 10.3421C74.784 10.4453 74.5181 10.4974 74.2498 10.4952ZM72.608 24.8296V12.0304H75.9153V24.8296H72.608Z" fill="white"/>
<path d="M86.0708 11.672C86.716 11.6528 87.3581 11.7682 87.9561 12.0106C88.5541 12.253 89.0949 12.6172 89.5441 13.08C90.4608 14.0186 90.9182 15.3152 90.9162 16.9697V24.8291H87.6089V17.3809C87.6089 16.526 87.3777 15.8753 86.9154 15.4227C86.6692 15.1913 86.3789 15.0118 86.0616 14.8949C85.7444 14.778 85.4068 14.7261 85.0691 14.7424C84.6906 14.7253 84.3127 14.7873 83.9596 14.9243C83.6065 15.0613 83.2859 15.2704 83.0183 15.5381C82.5056 16.0646 82.2478 16.8603 82.2478 17.9045V24.8291H78.9404V12.0299H82.2478V13.4645C83.0539 12.2695 84.3282 11.672 86.0708 11.672Z" fill="white"/>
<path d="M96.79 15.6774C96.79 16.0176 97.0153 16.2956 97.4687 16.5086C98.0002 16.7494 98.5541 16.9376 99.1224 17.0706C99.784 17.2369 100.435 17.4424 101.072 17.6859C101.728 17.9394 102.301 18.3695 102.726 18.9282C103.193 19.5551 103.432 20.3218 103.405 21.1024C103.432 21.6916 103.311 22.2784 103.052 22.8087C102.793 23.339 102.405 23.7959 101.923 24.1373C100.842 24.8745 99.5533 25.2467 98.2452 25.1992C95.6115 25.1992 93.8166 24.1836 92.8604 22.1525L95.732 20.5403C96.1213 21.6368 96.9609 22.185 98.2511 22.185C99.4365 22.185 100.029 21.8182 100.029 21.0846C100.029 20.7444 99.801 20.4664 99.3506 20.2534C98.8168 20.012 98.2623 19.8189 97.6939 19.6766C97.0323 19.5039 96.3821 19.2905 95.7469 19.0377C95.0983 18.7843 94.528 18.365 94.0932 17.8219C93.6263 17.229 93.3848 16.4902 93.4116 15.7366C93.3879 15.164 93.5026 14.5942 93.7461 14.0752C93.9896 13.5562 94.3546 13.1034 94.8104 12.7549C95.8099 12.0074 97.0354 11.6233 98.2837 11.6664C99.2777 11.6538 100.258 11.8962 101.132 12.3704C101.982 12.8367 102.684 13.5328 103.156 14.3788L100.337 15.914C100.171 15.512 99.8849 15.171 99.5173 14.9375C99.1497 14.704 98.7189 14.5895 98.2837 14.6096C97.9075 14.6006 97.5371 14.7036 97.2198 14.9054C97.0868 14.9854 96.9772 15.0988 96.9018 15.2342C96.8264 15.3697 96.7879 15.5225 96.79 15.6774Z" fill="white"/>
<path d="M119.844 24.8297H115.766L109.356 16.4349V24.8297H105.814V6.91309H109.356V14.808L115.508 6.91309H119.586L112.945 15.6126L119.844 24.8297Z" fill="white"/>
<path d="M130.024 12.0299H133.331V24.8292H130.024V23.3177C129.036 24.564 127.642 25.1871 125.842 25.1871C125.011 25.1932 124.189 25.0216 123.43 24.6838C122.672 24.346 121.994 23.8499 121.444 23.2289C120.226 21.9307 119.568 20.2063 119.612 18.4281C119.568 16.6508 120.226 14.9273 121.444 13.6302C121.994 13.0092 122.672 12.5131 123.43 12.1753C124.189 11.8375 125.011 11.6659 125.842 11.672C127.638 11.672 129.032 12.2952 130.024 13.5415V12.0299ZM123.919 21.0282C124.25 21.3617 124.646 21.6235 125.083 21.797C125.52 21.9706 125.988 22.0522 126.458 22.0369C126.93 22.0514 127.4 21.9694 127.839 21.796C128.278 21.6225 128.676 21.3612 129.01 21.0282C129.348 20.6866 129.612 20.2798 129.786 19.8326C129.96 19.3855 130.041 18.9076 130.024 18.4281C130.041 17.9491 129.96 17.4717 129.786 17.025C129.611 16.5784 129.347 16.1721 129.01 15.831C128.676 15.4974 128.278 15.2356 127.839 15.0616C127.4 14.8876 126.93 14.8052 126.458 14.8193C125.988 14.8045 125.52 14.8867 125.083 15.0608C124.646 15.2348 124.249 15.497 123.919 15.831C123.585 16.1744 123.325 16.5815 123.154 17.0278C122.982 17.4741 122.903 17.9504 122.92 18.4281C122.902 18.9063 122.981 19.3831 123.153 19.83C123.325 20.2768 123.585 20.6844 123.919 21.0282Z" fill="white"/>
<path d="M139.287 15.6774C139.287 16.0176 139.515 16.2957 139.969 16.5086C140.5 16.7504 141.054 16.9386 141.623 17.0707C142.283 17.2366 142.934 17.442 143.57 17.6859C144.223 17.9413 144.792 18.3723 145.214 18.9312C145.681 19.5581 145.92 20.3248 145.893 21.1054C145.921 21.6946 145.799 22.2814 145.54 22.8117C145.282 23.342 144.893 23.7989 144.411 24.1403C143.33 24.8772 142.042 25.2493 140.733 25.2022C138.098 25.2022 136.302 24.1866 135.346 22.1554L138.22 20.5433C138.6 21.6378 139.44 22.185 140.742 22.185C141.928 22.185 142.52 21.8182 142.52 21.0847C142.52 20.7445 142.292 20.4664 141.839 20.2535C141.303 20.014 140.746 19.8229 140.176 19.6826C139.515 19.5098 138.864 19.2964 138.229 19.0436C137.58 18.7896 137.009 18.3705 136.573 17.8279C136.108 17.234 135.868 16.4956 135.894 15.7425C135.87 15.17 135.985 14.6001 136.228 14.0811C136.472 13.5622 136.837 13.1093 137.293 12.7609C138.293 12.0127 139.52 11.6285 140.769 11.6723C141.763 11.6597 142.744 11.9021 143.617 12.3763C144.467 12.8426 145.169 13.5387 145.641 14.3848L142.82 15.92C142.655 15.5177 142.369 15.1763 142.002 14.9427C141.635 14.7091 141.204 14.5948 140.769 14.6155C140.393 14.6061 140.022 14.7091 139.705 14.9113C139.575 14.9923 139.469 15.1054 139.395 15.2396C139.322 15.3738 139.285 15.5246 139.287 15.6774Z" fill="white"/>
<path d="M155.155 11.6725C155.8 11.6534 156.442 11.7687 157.04 12.0111C157.638 12.2536 158.179 12.6178 158.628 13.0805C159.543 14.0192 160 15.3158 160 16.9703V24.8297H156.693V17.3814C156.693 16.5266 156.462 15.8758 155.999 15.4232C155.753 15.1921 155.463 15.0128 155.145 14.8959C154.828 14.779 154.491 14.727 154.153 14.7429C153.775 14.7259 153.397 14.7878 153.044 14.9248C152.69 15.0619 152.37 15.2709 152.102 15.5386C151.59 16.0651 151.332 16.8608 151.332 17.905V24.8297H148.024V6.91309H151.332V13.465C152.136 12.27 153.41 11.6725 155.155 11.6725Z" fill="white"/>
<path fill-rule="evenodd" clip-rule="evenodd" d="M29.0726 9.76159C27.8711 6.554 25.6063 3.8532 22.6546 2.10779C19.7028 0.362373 16.2416 -0.32261 12.8459 0.166613C9.45016 0.655836 6.32432 2.28982 3.98754 4.79717C1.65076 7.30451 0.243675 10.5343 0 13.9501H6.35092C6.56138 12.233 7.28062 10.6178 8.41651 9.3112C9.55241 8.00465 11.0532 7.06631 12.7267 6.6164C14.4002 6.16648 16.1702 6.22547 17.8099 6.78581C19.4496 7.34615 20.8843 8.38232 21.9304 9.76159H24.4435C23.4123 7.91057 21.8582 6.40336 19.9747 5.42778C18.0913 4.4522 15.9619 4.0514 13.8519 4.27531C11.7419 4.49923 9.7445 5.33796 8.1087 6.687C6.4729 8.03603 5.27101 9.83571 4.6528 11.8618H2.45976C3.1156 9.2603 4.56785 6.9277 6.6143 5.18875C8.66075 3.44981 11.1995 2.39108 13.8772 2.15998C16.5548 1.92888 19.238 2.53692 21.5531 3.89943C23.8682 5.26194 25.7001 7.3111 26.7936 9.76159H29.0726Z" fill="white"/>
<path fill-rule="evenodd" clip-rule="evenodd" d="M26.7936 20.2442C25.7004 22.6948 23.8687 24.7441 21.5538 26.1068C19.2389 27.4695 16.5558 28.0778 13.8782 27.8471C11.2007 27.6163 8.6618 26.5579 6.61516 24.8193C4.56853 23.0807 3.11598 20.7483 2.45976 18.147H4.64984C5.2684 20.1729 6.47057 21.9723 8.10654 23.321C9.74251 24.6697 11.7399 25.5081 13.8499 25.7317C15.9599 25.9553 18.0892 25.5542 19.9724 24.5785C21.8557 23.6027 23.4096 22.0953 24.4405 20.2442H21.9304C20.8847 21.6251 19.4496 22.6625 17.809 23.2235C16.1685 23.7845 14.3974 23.8433 12.7231 23.3926C11.0488 22.9418 9.54761 22.0019 8.41222 20.6936C7.27684 19.3853 6.55903 17.7682 6.35092 16.0498H0C0.23957 19.4679 1.64436 22.7011 3.9807 25.2116C6.31704 27.7221 9.44408 29.3585 12.8417 29.8487C16.2393 30.3389 19.7026 29.6533 22.6555 27.9059C25.6085 26.1585 27.8731 23.4547 29.0726 20.2442H26.7936Z" fill="white"/>
<path d="M14.9569 20.1025C17.7802 20.1025 20.069 17.8181 20.069 15C20.069 12.1819 17.7802 9.89746 14.9569 9.89746C12.1335 9.89746 9.84473 12.1819 9.84473 15C9.84473 17.8181 12.1335 20.1025 14.9569 20.1025Z" fill="white"/>
</g>
<defs>
<clipPath id="clip0_3189_4075">
<rect width="160" height="30" fill="white"/>
</clipPath>
</defs>
</svg>
