<svg width="733" height="1088" viewBox="0 0 733 1088" fill="none" xmlns="http://www.w3.org/2000/svg">
<g clip-path="url(#clip0_1_36)">
<rect width="733" height="1088" fill="#604AED"/>
<rect x="76" y="550.375" width="61" height="55.25" rx="8" fill="#7A65FF"/>
<rect x="-43" y="-29" width="157" height="122" rx="8" fill="#7A65FF"/>
<rect x="661" y="72" width="16" height="14" rx="2" fill="#7A65FF"/>
<rect x="342" y="832" width="51" height="49" rx="8" fill="#7A65FF"/>
<rect x="-24" y="986" width="161" height="121" rx="8" fill="#7A65FF"/>
<rect x="691" y="275" width="68" height="68" rx="8" fill="#7A65FF"/>
<rect x="402" y="638" width="91" height="84" rx="8" fill="#7A65FF"/>
<rect x="460" y="181" width="42" height="42" rx="4" fill="#7A65FF"/>
<rect x="661" y="965" width="42" height="42" rx="8" fill="#7A65FF"/>
<rect x="196" y="254" width="42" height="42" rx="4" fill="#7A65FF"/>
<rect x="118" y="703" width="38" height="38" rx="2" fill="#7A65FF"/>
<rect x="35" y="242" width="24" height="24" rx="2" fill="#7A65FF"/>
<rect x="567" y="475" width="61" height="54" rx="8" fill="#7A65FF"/>
</g>
<defs>
<clipPath id="clip0_1_36">
<rect width="733" height="1088" fill="white"/>
</clipPath>
</defs>
</svg>
