<svg width="540" height="102" viewBox="0 0 540 102" fill="none" xmlns="http://www.w3.org/2000/svg">
<g clip-path="url(#clip0_2_2)">
<path d="M160.46 85.15C151.34 85.15 143.814 82.12 137.88 76.06C134.967 73.1156 132.678 69.6127 131.152 65.7617C129.626 61.9107 128.894 57.7909 129 53.65C129 44.71 131.974 37.2266 137.92 31.2C143.867 25.1733 151.394 22.1733 160.5 22.2C165.792 22.1528 171.007 23.461 175.65 26C180.145 28.4325 183.898 32.0367 186.51 36.43L176.21 42.43C174.729 39.7416 172.508 37.5344 169.81 36.07C166.942 34.5167 163.722 33.728 160.46 33.78C154.58 33.78 149.837 35.6266 146.23 39.32C142.624 43.0133 140.82 47.8 140.82 53.68C140.82 59.5066 142.624 64.2666 146.23 67.96C149.837 71.6533 154.58 73.5 160.46 73.5C163.735 73.5441 166.967 72.7525 169.85 71.2C172.54 69.7792 174.751 67.5987 176.21 64.93L186.51 70.93C183.897 75.2928 180.16 78.8741 175.69 81.3C171.03 83.8743 165.784 85.2005 160.46 85.15V85.15Z" fill="white"/>
<path d="M230.46 78.53C227.262 81.7557 223.175 83.9558 218.722 84.8501C214.268 85.7443 209.649 85.292 205.454 83.551C201.258 81.8099 197.676 78.8589 195.164 75.0741C192.653 71.2894 191.325 66.8424 191.35 62.3C191.35 56.2292 193.762 50.407 198.054 46.1143C202.347 41.8216 208.169 39.41 214.24 39.41C220.311 39.41 226.133 41.8216 230.426 46.1143C234.718 50.407 237.13 56.2292 237.13 62.3C237.191 65.3181 236.631 68.3166 235.483 71.1088C234.336 73.9009 232.626 76.4271 230.46 78.53V78.53ZM205.85 70.87C206.934 71.977 208.236 72.8477 209.673 73.4277C211.11 74.0076 212.651 74.2842 214.2 74.24C215.754 74.2807 217.301 74.0027 218.744 73.4232C220.187 72.8436 221.496 71.9747 222.59 70.87C223.714 69.7503 224.596 68.4121 225.183 66.9382C225.769 65.4642 226.047 63.8857 226 62.3C226.052 60.7187 225.78 59.1435 225.201 57.6713C224.621 56.1992 223.746 54.8612 222.63 53.74C221.536 52.634 220.227 51.7636 218.785 51.1823C217.342 50.601 215.795 50.3212 214.24 50.36C212.69 50.3177 211.149 50.5961 209.712 51.1778C208.275 51.7594 206.974 52.6317 205.89 53.74C204.782 54.8659 203.915 56.2053 203.34 57.6768C202.766 59.1483 202.497 60.7213 202.55 62.3C202.492 63.8774 202.754 65.4502 203.322 66.9232C203.889 68.3963 204.749 69.739 205.85 70.87V70.87Z" fill="white"/>
<path d="M250.54 35.48C248.734 35.4567 247.007 34.7286 245.73 33.4508C244.452 32.1731 243.724 30.4469 243.7 28.64C243.693 27.7405 243.866 26.8486 244.21 26.0172C244.553 25.1858 245.06 24.4318 245.7 23.8C246.314 23.1385 247.058 22.6119 247.887 22.2538C248.715 21.8957 249.608 21.7139 250.51 21.72C251.425 21.7083 252.332 21.8872 253.174 22.2453C254.016 22.6034 254.774 23.1329 255.4 23.8C256.041 24.4318 256.548 25.1858 256.891 26.0172C257.235 26.8486 257.408 27.7405 257.4 28.64C257.411 29.5355 257.239 30.4238 256.895 31.2507C256.551 32.0776 256.043 32.8259 255.4 33.45C254.769 34.0992 254.014 34.6137 253.178 34.9626C252.343 35.3115 251.446 35.4875 250.54 35.48ZM245 83.94V40.67H256.16V83.94H245Z" fill="white"/>
<path d="M290.43 39.46C292.607 39.3954 294.774 39.7853 296.792 40.6049C298.81 41.4244 300.635 42.6557 302.15 44.22C305.243 47.3934 306.787 51.7767 306.78 57.37V83.94H295.62V58.76C295.62 55.87 294.84 53.67 293.28 52.14C292.45 51.3577 291.47 50.7508 290.399 50.3556C289.329 49.9604 288.19 49.7851 287.05 49.84C285.773 49.7824 284.498 49.9919 283.306 50.4551C282.115 50.9183 281.033 51.625 280.13 52.53C278.4 54.31 277.53 57 277.53 60.53V83.94H266.37V40.67H277.53V45.52C280.25 41.48 284.55 39.46 290.43 39.46Z" fill="white"/>
<path d="M326.6 53C326.6 54.15 327.36 55.09 328.89 55.81C330.683 56.6241 332.552 57.2604 334.47 57.71C336.702 58.2723 338.9 58.9669 341.05 59.79C343.262 60.6471 345.194 62.1009 346.63 63.99C348.205 66.1093 349.012 68.7012 348.92 71.34C349.013 73.3322 348.604 75.3158 347.73 77.1086C346.856 78.9013 345.546 80.4458 343.92 81.6C340.273 84.0925 335.924 85.3507 331.51 85.19C322.623 85.19 316.567 81.7567 313.34 74.89L323.03 69.44C324.343 73.1467 327.177 75 331.53 75C335.53 75 337.53 73.76 337.53 71.28C337.53 70.13 336.76 69.19 335.24 68.47C333.439 67.6538 331.568 67.0012 329.65 66.52C327.417 65.936 325.223 65.2147 323.08 64.36C320.891 63.5034 318.967 62.0859 317.5 60.25C315.924 58.2455 315.11 55.7479 315.2 53.2C315.12 51.2644 315.507 49.3379 316.329 47.5835C317.15 45.829 318.382 44.2981 319.92 43.12C323.293 40.5928 327.428 39.2944 331.64 39.44C334.994 39.3974 338.303 40.217 341.25 41.82C344.119 43.3965 346.486 45.7498 348.08 48.61L338.57 53.8C338.009 52.4409 337.043 51.288 335.803 50.4987C334.562 49.7094 333.108 49.3222 331.64 49.39C330.37 49.3598 329.121 49.7079 328.05 50.39C327.601 50.6606 327.231 51.0439 326.977 51.5018C326.723 51.9597 326.593 52.4762 326.6 53V53Z" fill="white"/>
<path d="M404.39 83.9401H390.63L369 55.5601V83.9401H357.05V23.3701H369V50.0601L389.76 23.3701H403.52L381.11 52.7801L404.39 83.9401Z" fill="white"/>
<path d="M438.74 40.67H449.9V83.94H438.74V78.83C435.406 83.0433 430.703 85.15 424.63 85.15C421.827 85.1706 419.052 84.5905 416.492 83.4485C413.932 82.3066 411.647 80.6295 409.79 78.53C405.679 74.1413 403.459 68.3116 403.61 62.3C403.459 56.2915 405.679 50.4651 409.79 46.08C411.647 43.9805 413.932 42.3034 416.492 41.1615C419.052 40.0195 421.827 39.4394 424.63 39.46C430.69 39.46 435.393 41.5667 438.74 45.78V40.67ZM418.14 71.09C419.257 72.2176 420.594 73.1025 422.069 73.6893C423.544 74.276 425.124 74.552 426.71 74.5C428.302 74.5492 429.887 74.2721 431.368 73.6856C432.848 73.0992 434.193 72.2158 435.32 71.09C436.459 69.9353 437.35 68.5599 437.938 67.0483C438.526 65.5367 438.799 63.9209 438.74 62.3C438.798 60.6807 438.525 59.0666 437.937 57.5568C437.349 56.0469 436.458 54.6732 435.32 53.52C434.194 52.3924 432.849 51.5072 431.369 50.919C429.888 50.3308 428.302 50.0521 426.71 50.1C425.123 50.0499 423.543 50.3277 422.068 50.9162C420.593 51.5046 419.256 52.3911 418.14 53.52C417.016 54.6812 416.138 56.0574 415.559 57.5661C414.98 59.0748 414.711 60.685 414.77 62.3C414.71 63.9167 414.978 65.5287 415.557 67.0393C416.136 68.5498 417.015 69.9277 418.14 71.09V71.09Z" fill="white"/>
<path d="M470 53.0001C470 54.1501 470.77 55.0901 472.3 55.8101C474.092 56.6273 475.962 57.2638 477.88 57.7101C480.11 58.271 482.304 58.9656 484.45 59.7901C486.654 60.6534 488.575 62.1107 490 64.0001C491.575 66.1195 492.383 68.7113 492.29 71.3501C492.383 73.3423 491.974 75.3259 491.1 77.1187C490.227 78.9114 488.917 80.4559 487.29 81.6101C483.643 84.1013 479.294 85.3594 474.88 85.2001C465.987 85.2001 459.927 81.7668 456.7 74.9001L466.4 69.4501C467.68 73.1501 470.517 75.0001 474.91 75.0001C478.91 75.0001 480.91 73.7601 480.91 71.2801C480.91 70.1301 480.14 69.1901 478.61 68.4701C476.802 67.6605 474.924 67.0146 473 66.5401C470.768 65.9562 468.574 65.2348 466.43 64.3801C464.24 63.5213 462.313 62.1044 460.84 60.2701C459.272 58.2622 458.461 55.7662 458.55 53.2201C458.47 51.2845 458.857 49.358 459.679 47.6036C460.5 45.8491 461.732 44.3182 463.27 43.1401C466.646 40.6107 470.785 39.3122 475 39.4601C478.354 39.4176 481.663 40.2371 484.61 41.8401C487.48 43.4166 489.847 45.7699 491.44 48.6301L481.92 53.8201C481.364 52.4601 480.4 51.3058 479.161 50.5161C477.921 49.7264 476.468 49.34 475 49.4101C473.731 49.3781 472.48 49.7264 471.41 50.4101C470.972 50.6839 470.612 51.0661 470.365 51.5199C470.118 51.9737 469.992 52.4835 470 53.0001V53.0001Z" fill="white"/>
<path d="M523.54 39.4601C525.718 39.3955 527.884 39.7854 529.902 40.6049C531.92 41.4245 533.745 42.6558 535.26 44.2201C538.347 47.3934 539.89 51.7768 539.89 57.3701V83.9401H528.73V58.7601C528.73 55.8701 527.95 53.6701 526.39 52.1401C525.559 51.3587 524.579 50.7524 523.509 50.3573C522.439 49.9622 521.3 49.7863 520.16 49.8401C518.883 49.7825 517.608 49.992 516.417 50.4552C515.225 50.9184 514.143 51.6251 513.24 52.5301C511.51 54.3101 510.64 57.0001 510.64 60.5301V83.9401H499.48V23.3701H510.64V45.5201C513.354 41.4801 517.654 39.4601 523.54 39.4601Z" fill="white"/>
<path fill-rule="evenodd" clip-rule="evenodd" d="M98.1 33C94.0457 22.1562 86.4038 13.0257 76.4435 7.12504C66.4833 1.22438 54.8041 -1.09132 43.346 0.562576C31.8878 2.21648 21.3402 7.74044 13.4552 16.2169C5.57018 24.6934 0.822235 35.6123 0 47.16H21.43C22.1401 41.3551 24.5671 35.8944 28.4 31.4774C32.2328 27.0604 37.2971 23.8882 42.944 22.3671C48.5908 20.8461 54.5633 21.0456 60.0961 22.9399C65.629 24.8342 70.4703 28.3371 74 33H82.48C79.0004 26.7423 73.7563 21.6469 67.401 18.3488C61.0458 15.0507 53.8606 13.6957 46.7406 14.4527C39.6207 15.2097 32.881 18.0452 27.3613 22.6058C21.8416 27.1665 17.786 33.2506 15.7 40.1H8.3C10.513 31.3053 15.4134 23.4195 22.3187 17.5408C29.2241 11.662 37.7908 8.08275 46.8259 7.30149C55.861 6.52023 64.915 8.5758 72.7269 13.182C80.5389 17.7882 86.7202 24.7157 90.41 33H98.1Z" fill="white"/>
<path fill-rule="evenodd" clip-rule="evenodd" d="M90.41 68.44C86.721 76.7244 80.5406 83.6524 72.7293 88.2593C64.918 92.8662 55.8646 94.9227 46.8295 94.1426C37.7945 93.3624 29.2276 89.7844 22.3216 83.9067C15.4156 78.029 10.5143 70.1441 8.3 61.35H15.69C17.7772 68.1988 21.8337 74.282 27.354 78.8416C32.8743 83.4012 39.6142 86.2355 46.734 86.9914C53.8538 87.7473 61.0387 86.3914 67.3933 83.0925C73.7479 79.7937 78.9912 74.6979 82.47 68.44H74C70.4716 73.1081 65.6289 76.6155 60.0931 78.5119C54.5574 80.4083 48.5813 80.6074 42.9317 79.0835C37.282 77.5596 32.2166 74.3822 28.3855 69.9592C24.5543 65.5362 22.1322 60.0693 21.43 54.26H0C0.808386 65.8154 5.5486 76.7458 13.4321 85.233C21.3157 93.7201 31.8673 99.2524 43.3318 100.91C54.7963 102.567 66.4827 100.249 76.4469 94.3415C86.4111 88.4342 94.0525 79.2935 98.1 68.44H90.41Z" fill="white"/>
<path d="M50.4697 67.96C59.9966 67.96 67.7197 60.2369 67.7197 50.71C67.7197 41.183 59.9966 33.46 50.4697 33.46C40.9428 33.46 33.2197 41.183 33.2197 50.71C33.2197 60.2369 40.9428 67.96 50.4697 67.96Z" fill="white"/>
</g>
<defs>
<clipPath id="clip0_2_2">
<rect width="539.89" height="101.42" fill="white"/>
</clipPath>
</defs>
</svg>
