<svg width="575" height="476" viewBox="0 0 575 476" fill="none" xmlns="http://www.w3.org/2000/svg">
<path d="M223.707 199.109C223.737 201.593 223.637 203.988 219.667 204.547C223.865 204.494 223.544 206.883 223.754 209.878C223.871 206.883 224.163 204.736 227.433 204.605C224.04 204.088 224.11 202.669 223.707 199.109Z" fill="#DFDBFB"/>
<path d="M516.735 97.3973C516.765 99.8812 516.665 102.275 512.695 102.834C516.893 102.782 516.572 105.171 516.782 108.166C516.899 105.171 517.191 103.024 520.461 102.892C517.068 102.376 517.138 100.957 516.735 97.3973Z" fill="#DFDBFB"/>
<path d="M462.637 240.837C462.666 243.321 462.567 245.715 458.596 246.274C462.795 246.221 462.473 248.61 462.684 251.605C462.8 248.61 463.092 246.464 466.362 246.332C462.97 245.815 463.04 244.396 462.637 240.837Z" fill="#DFDBFB"/>
<path d="M391.588 27.4882C391.617 29.9721 391.518 32.3663 387.548 32.9253C391.746 32.8726 391.425 35.2615 391.635 38.257C391.752 35.2615 392.044 33.1151 395.314 32.9833C391.921 32.4665 391.991 31.0479 391.588 27.4882Z" fill="#DFDBFB"/>
<path d="M519.583 111.387C519.612 113.871 519.513 116.265 515.542 116.824C519.74 116.772 519.419 119.161 519.629 122.156C519.746 119.161 520.038 117.014 523.308 116.882C519.915 116.366 519.986 114.947 519.583 111.387Z" fill="#DFDBFB"/>
<path d="M428.647 190.956C428.677 193.44 428.577 195.834 424.607 196.393C428.805 196.34 428.484 198.729 428.694 201.725C428.811 198.729 429.103 196.583 432.373 196.451C428.98 195.934 429.05 194.516 428.647 190.956Z" fill="#DFDBFB"/>
<path d="M414.546 306.415C414.575 308.899 414.476 311.293 410.505 311.852C414.704 311.799 414.383 314.188 414.593 317.184C414.71 314.188 415.002 312.042 418.271 311.91C414.879 311.393 414.949 309.975 414.546 306.415Z" fill="#DFDBFB"/>
<path d="M212.547 281.178C212.547 283.06 212.494 284.869 209.481 285.291C212.664 285.254 212.401 287.063 212.576 289.331C212.664 287.063 212.88 285.439 215.361 285.333C212.798 284.959 212.868 283.873 212.547 281.178Z" fill="#DFDBFB"/>
<path d="M451.363 88.5299C451.363 90.4126 451.311 92.2215 448.298 92.6434C451.48 92.6064 451.217 94.4153 451.392 96.683C451.48 94.4153 451.696 92.791 454.178 92.6856C451.614 92.3111 451.684 91.2247 451.363 88.5299Z" fill="#DFDBFB"/>
<path d="M485.24 80.6605C485.24 82.5432 485.187 84.3521 482.174 84.774C485.357 84.7371 485.094 86.5459 485.269 88.8136C485.357 86.5459 485.573 84.9216 488.054 84.8162C485.491 84.4417 485.561 83.3554 485.24 80.6605Z" fill="#DFDBFB"/>
<path d="M328.615 162.893C328.615 164.776 328.562 166.585 325.549 167.007C328.732 166.97 328.469 168.779 328.644 171.046C328.732 168.779 328.948 167.154 331.429 167.049C328.866 166.675 328.936 165.588 328.615 162.893Z" fill="#DFDBFB"/>
<path d="M215.17 382.363C215.17 384.245 215.117 386.054 212.104 386.476C215.287 386.439 215.024 388.248 215.199 390.516C215.287 388.248 215.503 386.624 217.984 386.518C215.421 386.144 215.491 385.057 215.17 382.363Z" fill="#DFDBFB"/>
<path d="M124.234 461.931C124.234 463.814 124.182 465.623 121.169 466.044C124.351 466.008 124.088 467.816 124.263 470.084C124.351 467.816 124.567 466.192 127.049 466.087C124.485 465.712 124.555 464.626 124.234 461.931Z" fill="#DFDBFB"/>
<path d="M206.426 467.177C206.426 469.06 206.374 470.869 203.361 471.291C206.543 471.254 206.28 473.063 206.455 475.33C206.543 473.063 206.759 471.438 209.241 471.333C206.677 470.958 206.747 469.872 206.426 467.177Z" fill="#DFDBFB"/>
<path d="M351.573 441.82C351.573 443.703 351.52 445.512 348.507 445.934C351.69 445.897 351.427 447.706 351.602 449.973C351.69 447.706 351.906 446.081 354.387 445.976C351.824 445.601 351.894 444.515 351.573 441.82Z" fill="#DFDBFB"/>
<path d="M496.72 416.463C496.72 418.346 496.667 420.155 493.654 420.577C496.837 420.54 496.574 422.349 496.749 424.616C496.837 422.349 497.053 420.724 499.534 420.619C496.971 420.244 497.041 419.158 496.72 416.463Z" fill="#DFDBFB"/>
<path d="M247.088 201.35C247.123 204.272 247.006 207.083 242.335 207.742C247.269 207.684 246.895 210.495 247.14 214.012C247.269 210.495 247.613 207.969 251.461 207.8C247.479 207.204 247.584 205.538 247.088 201.35Z" fill="#DFDBFB"/>
<path d="M346.117 213.348C346.152 216.27 346.035 219.081 341.364 219.74C346.298 219.682 345.924 222.493 346.169 226.01C346.298 222.493 346.642 219.967 350.49 219.798C346.508 219.202 346.613 217.536 346.117 213.348Z" fill="#DFDBFB"/>
<path d="M275.068 0C275.103 2.92161 274.986 5.73247 270.315 6.39168C275.249 6.33367 274.875 9.14453 275.12 12.6621C275.249 9.14453 275.593 6.61845 279.441 6.44969C275.459 5.85377 275.564 4.18729 275.068 0Z" fill="#DFDBFB"/>
<path d="M249.935 215.34C249.97 218.262 249.853 221.073 245.182 221.732C250.116 221.674 249.742 224.485 249.987 228.003C250.116 224.485 250.46 221.959 254.308 221.79C250.326 221.194 250.431 219.528 249.935 215.34Z" fill="#DFDBFB"/>
<path d="M152.879 304.284C152.914 307.206 152.797 310.016 148.126 310.676C153.06 310.618 152.687 313.428 152.932 316.946C153.06 313.428 153.405 310.902 157.253 310.734C153.27 310.138 153.376 308.471 152.879 304.284Z" fill="#DFDBFB"/>
<path d="M443.173 253.57C443.208 256.492 443.091 259.302 438.42 259.962C443.354 259.904 442.98 262.714 443.225 266.232C443.354 262.714 443.698 260.188 447.546 260.02C443.564 259.424 443.669 257.757 443.173 253.57Z" fill="#DFDBFB"/>
<path d="M444.393 65.9659C444.44 69.7577 444.288 73.4124 438.221 74.2614C444.644 74.1876 444.148 77.837 444.457 82.4092C444.633 77.837 445.076 74.5567 450.075 74.3405C444.901 73.5653 445.041 71.4031 444.393 65.9659Z" fill="#604AED"/>
<path d="M472.149 63.8297C472.196 67.6215 472.044 71.2761 465.977 72.1252C472.4 72.0514 471.904 75.7007 472.214 80.273C472.389 75.7007 472.833 72.4205 477.831 72.2043C472.657 71.4291 472.797 69.2669 472.149 63.8297Z" fill="#604AED"/>
<path d="M336.734 236.998C336.78 240.79 336.629 244.444 330.562 245.293C336.985 245.219 336.488 248.869 336.798 253.441C336.973 248.869 337.417 245.589 342.415 245.372C337.242 244.597 337.382 242.435 336.734 236.998Z" fill="#604AED"/>
<path d="M472.263 298.204C472.309 301.996 472.157 305.651 466.091 306.5C472.514 306.426 472.017 310.075 472.327 314.648C472.502 310.075 472.946 306.795 477.944 306.579C472.771 305.804 472.911 303.641 472.263 298.204Z" fill="#604AED"/>
<path d="M401.214 84.8558C401.26 88.6476 401.108 92.3022 395.042 93.1513C401.465 93.0775 400.968 96.7268 401.278 101.299C401.453 96.7268 401.897 93.4466 406.895 93.2304C401.722 92.4552 401.862 90.293 401.214 84.8558Z" fill="#604AED"/>
<path d="M529.208 168.755C529.255 172.547 529.103 176.202 523.036 177.051C529.459 176.977 528.963 180.626 529.272 185.198C529.447 180.626 529.891 177.346 534.89 177.13C529.716 176.354 529.856 174.192 529.208 168.755Z" fill="#604AED"/>
<path d="M196.833 383.894C196.88 387.685 196.728 391.34 190.661 392.189C197.084 392.115 196.588 395.765 196.897 400.337C197.072 395.765 197.516 392.484 202.515 392.268C197.341 391.493 197.481 389.331 196.833 383.894Z" fill="#604AED"/>
<path d="M279.025 389.14C279.071 392.931 278.92 396.586 272.853 397.435C279.276 397.361 278.779 401.011 279.089 405.583C279.264 401.011 279.708 397.73 284.706 397.514C279.533 396.739 279.673 394.577 279.025 389.14Z" fill="#604AED"/>
<path d="M569.172 408.005C569.219 411.797 569.067 415.451 563 416.3C569.423 416.227 568.927 419.876 569.236 424.448C569.411 419.876 569.855 416.596 574.853 416.379C569.68 415.604 569.82 413.442 569.172 408.005Z" fill="#604AED"/>
<path d="M171.85 179.248C171.891 182.412 171.762 185.497 166.665 186.214C172.048 186.151 171.646 189.215 171.92 193.07C172.06 189.231 172.434 186.478 176.632 186.293C172.282 185.629 172.381 183.815 171.85 179.248Z" fill="#604AED"/>
<path d="M205.726 171.378C205.767 174.542 205.639 177.628 200.541 178.345C205.925 178.282 205.522 181.346 205.796 185.201C205.937 181.361 206.31 178.608 210.509 178.424C206.158 177.759 206.258 175.945 205.726 171.378Z" fill="#604AED"/>
<path d="M226.062 270.183C226.102 273.347 225.974 276.432 220.876 277.15C226.26 277.086 225.857 280.15 226.132 284.005C226.272 280.166 226.646 277.413 230.844 277.229C226.494 276.564 226.593 274.75 226.062 270.183Z" fill="#604AED"/>
<path d="M80.0404 426.454C80.0812 429.618 79.9528 432.703 74.8552 433.42C80.2389 433.357 79.836 436.421 80.1104 440.276C80.2506 436.437 80.6243 433.684 84.8226 433.499C80.4725 432.835 80.5717 431.021 80.0404 426.454Z" fill="#604AED"/>
<path d="M225.187 401.097C225.228 404.261 225.099 407.346 220.002 408.063C225.386 408 224.983 411.064 225.257 414.919C225.397 411.08 225.771 408.327 229.969 408.143C225.619 407.478 225.718 405.664 225.187 401.097Z" fill="#604AED"/>
<path d="M370.334 375.74C370.375 378.904 370.246 381.989 365.149 382.706C370.532 382.643 370.13 385.707 370.404 389.562C370.544 385.723 370.918 382.97 375.116 382.785C370.766 382.121 370.865 380.307 370.334 375.74Z" fill="#604AED"/>
<path d="M161.078 184.857C161.078 186.265 161.043 187.615 158.795 187.926C161.166 187.926 160.991 189.25 161.102 190.937C161.166 189.25 161.33 188.037 163.181 187.957C161.271 187.673 161.318 186.871 161.078 184.857Z" fill="#604AED"/>
<path d="M244.144 66.5723C244.144 67.9803 244.109 69.3304 241.861 69.6415C244.232 69.6415 244.057 70.9652 244.168 72.6528C244.232 70.9652 244.395 69.7523 246.246 69.6732C244.337 69.3884 244.384 68.5868 244.144 66.5723Z" fill="#604AED"/>
<path d="M454.106 83.1442C454.106 84.5522 454.071 85.9023 451.823 86.2134C454.194 86.2134 454.019 87.5371 454.13 89.2247C454.194 87.5371 454.358 86.3242 456.209 86.2451C454.299 85.9603 454.346 85.1587 454.106 83.1442Z" fill="#604AED"/>
<path d="M400.008 226.583C400.008 227.992 399.973 229.342 397.725 229.653C400.096 229.653 399.92 230.976 400.031 232.664C400.096 230.976 400.259 229.764 402.11 229.684C400.201 229.4 400.247 228.598 400.008 226.583Z" fill="#604AED"/>
<path d="M456.954 97.1343C456.954 98.5423 456.919 99.8924 454.671 100.204C457.041 100.204 456.866 101.527 456.977 103.215C457.041 101.527 457.205 100.314 459.056 100.235C457.147 99.9504 457.193 99.1488 456.954 97.1343Z" fill="#604AED"/>
<path d="M448.21 181.949C448.21 183.357 448.175 184.707 445.927 185.018C448.298 185.018 448.123 186.342 448.233 188.03C448.298 186.342 448.461 185.129 450.312 185.05C448.403 184.765 448.449 183.964 448.21 181.949Z" fill="#604AED"/>
<path d="M351.917 292.162C351.917 293.57 351.882 294.92 349.634 295.231C352.005 295.231 351.83 296.555 351.941 298.242C352.005 296.555 352.168 295.342 354.019 295.263C352.11 294.978 352.157 294.176 351.917 292.162Z" fill="#604AED"/>
<path d="M497.064 266.805C497.064 268.213 497.029 269.563 494.781 269.874C497.152 269.874 496.977 271.198 497.088 272.885C497.152 271.198 497.315 269.985 499.166 269.906C497.257 269.621 497.304 268.819 497.064 266.805Z" fill="#604AED"/>
<path d="M8.84296 201.535C8.84296 202.975 8.80793 204.357 6.50732 204.699C8.93639 204.673 8.74954 206.055 8.84296 207.79C8.90719 206.055 9.07652 204.81 10.9684 204.731C9.04149 204.415 9.0882 203.597 8.84296 201.535Z" fill="#604AED"/>
<path d="M230.935 232.869C230.935 234.308 230.9 235.69 228.6 236.033C231.029 236.006 230.842 237.388 230.935 239.123C231 237.388 231.169 236.144 233.061 236.064C231.134 235.748 231.181 234.931 230.935 232.869Z" fill="#604AED"/>
<path d="M2.72236 383.893C2.72236 385.333 2.68732 386.714 0.386719 387.057C2.81578 387.031 2.62893 388.413 2.72236 390.148C2.78659 388.413 2.95592 387.168 4.84778 387.089C2.92088 386.772 2.9676 385.955 2.72236 383.893Z" fill="#604AED"/>
<path d="M230.061 363.782C230.061 365.222 230.026 366.604 227.725 366.946C230.154 366.92 229.967 368.302 230.061 370.037C230.125 368.302 230.294 367.057 232.186 366.978C230.259 366.662 230.306 365.844 230.061 363.782Z" fill="#604AED"/>
<path d="M92.3948 77.8197C92.4357 81.6484 92.2839 85.3347 86.1587 86.1943C92.6342 86.1204 92.1438 89.8015 92.4591 94.4212C92.6342 89.8015 93.7729 86.3367 98.8178 86.1204C93.5977 85.3188 93.0488 83.3096 92.3948 77.8197Z" fill="#604AED"/>
<path d="M176.986 223.697C177.027 227.525 176.875 231.212 170.75 232.071C177.225 231.997 176.735 235.678 177.05 240.298C177.225 235.678 178.364 232.214 183.409 231.997C178.189 231.196 177.64 229.187 176.986 223.697Z" fill="#604AED"/>
<path d="M517.454 100.125C517.495 103.954 517.343 107.64 511.218 108.5C517.693 108.426 517.203 112.107 517.518 116.726C517.693 112.107 518.832 108.642 523.877 108.426C518.657 107.624 518.108 105.615 517.454 100.125Z" fill="#604AED"/>
<path d="M332.236 30.0049C332.277 33.8336 332.125 37.5199 326 38.3795C332.476 38.3056 331.985 41.9866 332.3 46.6064C332.476 41.9866 333.614 38.5218 338.659 38.3056C333.439 37.504 332.89 35.4948 332.236 30.0049Z" fill="#604AED"/>
<path d="M179.833 237.687C179.874 241.515 179.722 245.202 173.597 246.061C180.072 245.988 179.582 249.669 179.897 254.288C180.072 249.669 181.211 246.204 186.256 245.988C181.036 245.186 180.487 243.177 179.833 237.687Z" fill="#604AED"/>
<path d="M44.2362 284.005C44.277 287.834 44.1252 291.52 38 292.379C44.4756 292.306 43.9851 295.987 44.3004 300.606C44.4756 295.987 45.6142 292.522 50.6592 292.306C45.439 291.504 44.8901 289.495 44.2362 284.005Z" fill="#604AED"/>
<path d="M469.363 165.703C469.404 169.532 469.252 173.218 463.127 174.078C469.603 174.004 469.112 177.685 469.428 182.305C469.603 177.685 470.741 174.22 475.786 174.004C470.566 173.203 470.017 171.193 469.363 165.703Z" fill="#604AED"/>
<path d="M373.071 275.916C373.111 279.745 372.96 283.431 366.834 284.291C373.31 284.217 372.82 287.898 373.135 292.518C373.31 287.898 374.449 284.433 379.494 284.217C374.273 283.416 373.725 281.406 373.071 275.916Z" fill="#604AED"/>
<path d="M236.442 228.115C236.471 230.816 236.366 233.389 232.045 234.022C236.612 233.964 236.267 236.564 236.489 239.823C236.612 236.569 236.927 234.233 240.483 234.08C236.804 233.526 236.904 231.997 236.442 228.115Z" fill="#DFDBFB"/>
<path d="M429.567 83.0718C429.596 85.7719 429.491 88.3454 425.17 88.9783C429.736 88.9203 429.392 91.5202 429.614 94.7793C429.736 91.5255 430.052 89.1892 433.608 89.0363C429.929 88.4826 430.028 86.9532 429.567 83.0718Z" fill="#DFDBFB"/>
<path d="M443.781 187.61C443.81 190.31 443.705 192.883 439.384 193.516C443.95 193.458 443.606 196.058 443.828 199.317C443.95 196.063 444.266 193.727 447.822 193.574C444.143 193.021 444.242 191.491 443.781 187.61Z" fill="#DFDBFB"/>
<path d="M337.87 384.386C337.899 387.086 337.794 389.66 333.473 390.293C338.04 390.235 337.695 392.835 337.917 396.094C338.04 392.84 338.355 390.504 341.911 390.351C338.232 389.797 338.332 388.268 337.87 384.386Z" fill="#DFDBFB"/>
<path d="M266.821 171.038C266.851 173.738 266.745 176.311 262.425 176.944C266.991 176.886 266.646 179.486 266.868 182.745C266.991 179.491 267.306 177.155 270.862 177.002C267.183 176.448 267.283 174.919 266.821 171.038Z" fill="#DFDBFB"/>
<path d="M153.376 390.507C153.406 393.207 153.3 395.781 148.979 396.413C153.546 396.355 153.201 398.955 153.423 402.214C153.546 398.961 153.861 396.624 157.417 396.471C153.738 395.918 153.838 394.388 153.376 390.507Z" fill="#DFDBFB"/>
<path d="M289.779 449.965C289.808 452.665 289.703 455.238 285.382 455.871C289.948 455.813 289.604 458.413 289.826 461.672C289.949 458.418 290.264 456.082 293.82 455.929C290.141 455.375 290.24 453.846 289.779 449.965Z" fill="#DFDBFB"/>
<path d="M434.926 424.608C434.955 427.308 434.85 429.881 430.529 430.514C435.095 430.456 434.751 433.056 434.973 436.315C435.095 433.061 435.411 430.725 438.967 430.572C435.288 430.018 435.387 428.489 434.926 424.608Z" fill="#DFDBFB"/>
</svg>
