<svg width="117" height="40" viewBox="0 0 117 40" fill="none" xmlns="http://www.w3.org/2000/svg">
<path d="M4.75026 0H112.185C114.806 0 116.935 2.152 116.935 4.8V35.2C116.935 37.848 114.806 40 112.185 40H4.75026C2.1297 40 0 37.848 0 35.2V4.8C0 2.152 2.1297 0 4.75026 0Z" fill="#191F2B"/>
<path d="M21.4187 15.4202C21.4187 15.4202 14.6564 11.6123 14.2583 11.3898C13.8601 11.1674 13.4619 11.3022 13.4619 11.7673V28.1784C13.4619 28.5289 13.7473 28.6772 14.0924 28.4885C14.4374 28.293 21.4187 24.3638 21.4187 24.3638C21.4187 24.3638 22.3677 23.8313 22.8389 23.5617C23.6021 23.1304 25.1284 22.2745 25.1284 22.2745C25.1284 22.2745 28.2806 20.5019 28.6987 20.266C29.1168 20.0301 29.0769 19.7066 28.7252 19.5247C28.3735 19.3427 25.135 17.5028 25.135 17.5028L21.4187 15.4202Z" fill="url(#paint0_linear_844_1279)"/>
<path d="M22.6667 19.868L13.7742 11.3086C13.5685 11.3558 13.4424 11.5175 13.4424 11.7804V28.1578C13.4424 28.3802 13.5287 28.515 13.6415 28.5622L22.6667 19.868Z" fill="url(#paint1_linear_844_1279)"/>
<mask id="mask0_844_1279" style="mask-type:alpha" maskUnits="userSpaceOnUse" x="13" y="11" width="10" height="18">
<path d="M22.6667 19.868L13.7742 11.3086C13.5685 11.3558 13.4424 11.5175 13.4424 11.7804V28.1578C13.4424 28.3802 13.5287 28.515 13.6415 28.5622L22.6667 19.868Z" fill="white"/>
</mask>
<g mask="url(#mask0_844_1279)">
</g>
<mask id="mask1_844_1279" style="mask-type:alpha" maskUnits="userSpaceOnUse" x="13" y="19" width="13" height="10">
<path d="M14.0027 28.5162L19.1458 25.6451C20.4133 24.9306 21.4154 24.3645 21.4154 24.3645L25.1516 22.3224L22.663 19.8691L13.6377 28.5633C13.7372 28.597 13.9164 28.5768 14.0558 28.5094" fill="white"/>
</mask>
<g mask="url(#mask1_844_1279)">
<path d="M21.4039 15.4206C21.3906 15.4543 14.6283 11.6396 14.2368 11.4442C13.8386 11.1881 13.4404 11.3296 13.4404 11.7812V28.226C13.4404 28.59 13.7258 28.7383 14.0377 28.563C14.416 28.3474 21.3906 24.4181 21.4039 24.3844L25.1202 22.2951C25.1003 22.3221 28.2458 20.5495 28.6374 20.3406C29.0886 20.0777 29.0422 19.7542 28.7037 19.5992C28.3388 19.3836 25.1003 17.5436 25.1202 17.5099L21.4039 15.4206Z" fill="url(#paint2_linear_844_1279)"/>
</g>
<path d="M14.2425 11.383C14.0699 11.2954 13.904 11.2684 13.7646 11.3021L22.6638 19.875L25.1259 17.5094L21.4162 15.4201C21.4162 15.4201 17.9189 13.4521 15.8086 12.2659L14.2425 11.383Z" fill="url(#paint3_linear_844_1279)"/>
<mask id="mask2_844_1279" style="mask-type:alpha" maskUnits="userSpaceOnUse" x="13" y="11" width="13" height="9">
<path d="M14.2425 11.383C14.0699 11.2954 13.904 11.2684 13.7646 11.3021L22.6638 19.875L25.1259 17.5094L21.4162 15.4201C21.4162 15.4201 17.9189 13.4521 15.8086 12.2659L14.2425 11.383Z" fill="white"/>
</mask>
<g mask="url(#mask2_844_1279)">
</g>
<path d="M76.5913 26.1303L75.8547 26.838C75.6822 26.9323 75.5163 27.0469 75.3504 27.121C74.8394 27.3569 74.3217 27.4176 73.8572 27.4176C73.3661 27.4176 72.5963 27.3839 71.8132 26.8043C70.7249 26.0225 70.2471 24.6678 70.2471 23.4951C70.2471 21.0621 72.1849 19.8691 73.7709 19.8691C74.3217 19.8691 74.8925 20.0107 75.3504 20.3072C76.1202 20.8262 76.3193 21.5001 76.4254 21.8641L72.8153 23.3536L71.6341 23.4479C72.019 25.4429 73.3396 26.6021 74.7995 26.6021C75.5295 26.6021 76.0671 26.3595 76.5648 26.1101C76.5648 26.1101 76.6643 26.0562 76.5913 26.1303ZM74.3881 22.1269C74.6801 22.0191 74.8261 21.9247 74.8261 21.7023C74.8261 21.0688 74.1426 20.3409 73.3197 20.3409C72.7158 20.3409 71.5743 20.8329 71.5743 22.5381C71.5743 22.8076 71.6075 23.0907 71.6208 23.3738L74.3881 22.1269Z" fill="white"/>
<path d="M69.0529 26.0425C69.0529 26.6491 69.1591 26.7434 69.6634 26.7906C69.9289 26.8243 70.1877 26.8378 70.4465 26.8648L69.8824 27.2085H67.1815C67.5332 26.7367 67.5996 26.6895 67.5996 26.3795V26.029L67.593 16.7282H66.3984L67.5465 16.1621H69.7364C69.2586 16.4452 69.1193 16.6137 69.0596 17.1596L69.0529 26.0425Z" fill="white"/>
<path d="M64.8653 20.6374C65.2171 20.934 65.947 21.5608 65.947 22.747C65.947 23.9062 65.31 24.4521 64.6662 24.9711C64.4672 25.1732 64.2349 25.3957 64.2349 25.7394C64.2349 26.0831 64.4672 26.2718 64.6331 26.4134L65.1839 26.8514C65.8541 27.431 66.4647 27.9635 66.4647 29.0418C66.4647 30.5111 65.0711 32.0006 62.4431 32.0006C60.2266 32.0006 59.1582 30.9222 59.1582 29.763C59.1582 29.1969 59.4303 28.4016 60.3394 27.8556C61.2884 27.2626 62.5692 27.1817 63.2594 27.1345C63.047 26.8514 62.8015 26.5549 62.8015 26.0696C62.8015 25.8068 62.8811 25.645 62.9541 25.4563C62.7882 25.4698 62.6157 25.49 62.463 25.49C60.8438 25.49 59.928 24.2499 59.928 23.03C59.928 22.3089 60.2465 21.5136 60.9102 20.934C61.7795 20.1993 62.8214 20.0713 63.6443 20.0713H66.7965L65.8143 20.6374H64.8653ZM63.7903 27.5726C63.6642 27.5524 63.5912 27.5524 63.4385 27.5524C63.2992 27.5524 62.463 27.5861 61.8193 27.8085C61.4809 27.9365 60.4921 28.3207 60.4921 29.453C60.4921 30.5852 61.5539 31.4007 63.2063 31.4007C64.6862 31.4007 65.4692 30.6661 65.4692 29.6821C65.4692 28.8599 64.9582 28.4285 63.7903 27.5726ZM64.2216 24.5532C64.5733 24.196 64.6065 23.6973 64.6065 23.4142C64.6065 22.2887 63.9562 20.5431 62.6887 20.5431C62.2971 20.5431 61.8658 20.7453 61.6202 21.062C61.3614 21.3855 61.2884 21.8101 61.2884 22.2145C61.2884 23.2592 61.8857 24.9913 63.193 24.9913C63.5713 24.9913 63.9827 24.8026 64.2216 24.5532Z" fill="white"/>
<path d="M55.3358 27.4176C52.9003 27.4176 51.5996 25.4631 51.5996 23.6973C51.5996 21.6349 53.2387 19.8691 55.568 19.8691C57.8177 19.8691 59.2312 21.6821 59.2312 23.5894C59.2312 25.4496 57.8376 27.4176 55.3358 27.4176ZM57.2404 26.1438C57.612 25.6383 57.7049 25.0048 57.7049 24.3915C57.7049 22.9964 57.0612 20.3409 55.15 20.3409C54.6456 20.3409 54.1346 20.5431 53.763 20.8801C53.1658 21.4327 53.0529 22.1269 53.0529 22.8076C53.0529 24.3712 53.8028 26.9458 55.6676 26.9458C56.2781 26.9458 56.8887 26.6493 57.2404 26.1438Z" fill="white"/>
<path d="M47.1737 27.4176C44.7382 27.4176 43.4375 25.4631 43.4375 23.6973C43.4375 21.6349 45.0766 19.8691 47.406 19.8691C49.6556 19.8691 51.0692 21.6821 51.0692 23.5894C51.0692 25.4496 49.6755 27.4176 47.1737 27.4176ZM49.0783 26.1438C49.4499 25.6383 49.5428 25.0048 49.5428 24.3915C49.5428 22.9964 48.8925 20.3409 46.9879 20.3409C46.4769 20.3409 45.9725 20.5431 45.6009 20.8801C44.997 21.4327 44.8908 22.1269 44.8908 22.8076C44.8908 24.3712 45.6474 26.9458 47.5055 26.9458C48.116 26.9458 48.7266 26.6493 49.0783 26.1438Z" fill="white"/>
<path d="M42.4284 26.9522L40.3645 27.4375C39.5284 27.5723 38.7785 27.6936 37.9821 27.6936C34.0004 27.6869 32.4873 24.6944 32.4873 22.349C32.4873 19.4914 34.6374 16.8359 38.3139 16.8359C39.0904 16.8359 39.8403 16.9505 40.5238 17.146C41.6055 17.456 42.1099 17.8402 42.4284 18.0626L41.2272 19.2285L40.7229 19.3431L41.0812 18.7568C40.5902 18.2715 39.6943 17.3684 37.9954 17.3684C35.7192 17.3684 34.0004 19.1342 34.0004 21.7155C34.0004 24.4855 35.9581 27.0938 39.1036 27.0938C40.0261 27.0938 40.5039 26.905 40.9352 26.7298V24.3507L38.7586 24.472L39.9133 23.8385H42.9726L42.6009 24.2092C42.5014 24.2968 42.4881 24.3237 42.4549 24.4451C42.4417 24.5799 42.4284 25.0045 42.4284 25.1595V26.9522Z" fill="white"/>
<path d="M81.044 26.1977V30.1809H80.2676V20.0511H81.044V21.2036C81.5484 20.4555 82.4774 19.8691 83.5458 19.8691C85.4703 19.8691 86.771 21.3586 86.771 23.7108C86.771 26.0494 85.477 27.5659 83.5458 27.5659C82.5371 27.5659 81.628 27.0334 81.044 26.1977ZM85.9747 23.7714C85.9747 21.9787 85.0655 20.6105 83.4463 20.6105C82.4442 20.6105 81.482 21.4193 81.0639 22.1269V25.4024C81.482 26.1101 82.4442 26.9458 83.4463 26.9458C85.0655 26.9458 85.9747 25.5642 85.9747 23.7714Z" fill="white"/>
<path d="M87.833 17.2402H88.6283V27.4172H87.833V17.2402Z" fill="white"/>
<path d="M97.2895 29.4799C97.4554 29.554 97.7408 29.6012 97.92 29.6012C98.3978 29.6012 98.723 29.4058 99.0216 28.7048L99.5857 27.3973L96.5264 20.0039H97.3957L100.017 26.4133L102.618 20.0039H103.494L99.7649 28.9475C99.38 29.8708 98.7694 30.3156 97.9333 30.3156C97.6811 30.3156 97.3493 30.2684 97.1568 30.2078L97.2895 29.4799Z" fill="white"/>
<path d="M95.0932 27.4108C95.0401 27.1547 95.0003 26.9323 94.9737 26.7436C94.9472 26.5549 94.9339 26.3662 94.9339 26.1707C94.6684 26.5684 94.2902 26.9054 93.7991 27.1682C93.3147 27.4311 92.8501 27.5591 92.2197 27.5591C91.4565 27.5591 90.8659 27.3704 90.4478 26.9795C90.0297 26.5953 89.8174 26.0696 89.8174 25.4092C89.8174 24.7487 90.1226 24.2095 90.7332 23.7984C91.3437 23.3873 92.1334 23.1783 93.1089 23.1783H94.9273V22.2617C94.9273 21.736 94.7481 21.3182 94.3964 21.0216C94.0446 20.7183 93.5469 20.5701 92.9032 20.5701C92.3126 20.5701 91.8348 20.7116 91.4698 20.9812C91.1114 21.2575 90.9256 21.6012 90.9256 22.0124H90.1293L90.116 21.9719C90.0895 21.4125 90.335 20.9273 90.8725 20.5027C91.4034 20.0781 92.0936 19.8691 92.9497 19.8691C93.7991 19.8691 94.4893 20.0781 95.0069 20.4959C95.5245 20.9071 95.7833 21.5069 95.7833 22.2819V25.9214C95.7833 26.1842 95.7966 26.4336 95.8298 26.683C95.863 26.9323 95.9161 27.175 95.9824 27.4108H95.0932ZM92.3192 26.8784C92.9829 26.8784 93.4607 26.7234 93.9451 26.4269C94.4295 26.1303 94.7547 25.7394 94.9273 25.2676V23.8456H93.0957C92.3989 23.8456 91.8215 24.0006 91.3636 24.3241C90.9057 24.6408 90.6801 25.025 90.6801 25.4766C90.6801 25.9012 90.8261 26.2381 91.1181 26.4942C91.4167 26.7504 91.8149 26.8784 92.3192 26.8784Z" fill="white"/>
<path d="M32.2227 10.3859C32.2227 8.93682 33.3641 8 34.7842 8C35.7332 8 36.357 8.43134 36.7486 8.95704L36.0518 9.33446C35.7863 8.99074 35.3284 8.72115 34.7842 8.72115C33.822 8.72115 33.0986 9.41534 33.0986 10.3859C33.1053 11.3496 33.822 12.0506 34.7842 12.0506C35.282 12.0506 35.7199 11.8349 35.9389 11.6327V10.925H34.479V10.2106H36.7884V11.9292C36.3106 12.4347 35.627 12.7717 34.7842 12.7717C33.3641 12.7784 32.2227 11.8349 32.2227 10.3859Z" fill="white"/>
<path d="M37.8965 12.7111V8.07422H41.2876V8.78863H38.7658V9.98155H41.2345V10.7027H38.7658V11.9967H41.2876V12.7111H37.8965Z" fill="white"/>
<path d="M43.5904 12.7111V8.78863H42.1172V8.07422H45.9197V8.78863H44.4465V12.7111H43.5904Z" fill="white"/>
<path d="M48.9658 8.07422H49.7942V12.7111H48.9658V8.07422Z" fill="white"/>
<path d="M52.1715 12.7111V8.78863H50.6982V8.07422H54.5008V8.78863H53.0275V12.7111H52.1715Z" fill="white"/>
<path d="M57.3408 10.3927C57.3408 9.01779 58.3827 8.00684 59.8693 8.00684C61.3425 8.00684 62.391 9.01779 62.391 10.3927C62.391 11.7676 61.3359 12.7786 59.8693 12.7786C58.3827 12.7786 57.3408 11.7676 57.3408 10.3927ZM61.4885 10.3523C61.4885 9.4087 60.8514 8.70103 59.8626 8.70103C58.8672 8.70103 58.2367 9.4087 58.2367 10.3523C58.2367 11.2891 58.8672 12.0035 59.8626 12.0035C60.8514 12.0035 61.4885 11.2958 61.4885 10.3523Z" fill="white"/>
<path d="M66.7503 12.7111L64.2086 9.3952V12.7111H63.3525V8.07422H64.2285L66.7172 11.289V8.07422H67.5732V12.7111H66.7503Z" fill="white"/>
<defs>
<linearGradient id="paint0_linear_844_1279" x1="17.1301" y1="16.7419" x2="22.8853" y2="25.0579" gradientUnits="userSpaceOnUse">
<stop stop-color="#FF177B"/>
<stop offset="1" stop-color="#FFEC73"/>
</linearGradient>
<linearGradient id="paint1_linear_844_1279" x1="19.5292" y1="4.98245" x2="9.14797" y2="26.6893" gradientUnits="userSpaceOnUse">
<stop stop-color="#064AA2"/>
<stop offset="1" stop-color="#63FFD4"/>
</linearGradient>
<linearGradient id="paint2_linear_844_1279" x1="22.5926" y1="14.7838" x2="10.0338" y2="22.1814" gradientUnits="userSpaceOnUse">
<stop stop-color="#FF4521"/>
<stop offset="1" stop-color="#8A33DB"/>
</linearGradient>
<linearGradient id="paint3_linear_844_1279" x1="15.4474" y1="8.55514" x2="20.0292" y2="20.2818" gradientUnits="userSpaceOnUse">
<stop stop-color="#00A3B5"/>
<stop offset="1" stop-color="#D6FFA1"/>
</linearGradient>
</defs>
</svg>
