<svg width="24" height="24" viewBox="0 0 24 24" fill="none" xmlns="http://www.w3.org/2000/svg">
<path d="M21.6762 10.0415H20.8755V10H11.9289V14H17.5469C16.7273 16.3285 14.5249 18 11.9289 18C8.63508 18 5.96453 15.3135 5.96453 12C5.96453 8.6865 8.63508 6 11.9289 6C13.4493 6 14.8326 6.577 15.8858 7.5195L18.6975 4.691C16.9221 3.0265 14.5473 2 11.9289 2C6.4392 2 1.98828 6.4775 1.98828 12C1.98828 17.5225 6.4392 22 11.9289 22C17.4186 22 21.8695 17.5225 21.8695 12C21.8695 11.3295 21.801 10.675 21.6762 10.0415Z" fill="#FFC107"/>
<path d="M3.13379 7.3455L6.39978 9.755C7.2835 7.554 9.42372 6 11.9283 6C13.4487 6 14.8319 6.577 15.8851 7.5195L18.6968 4.691C16.9214 3.0265 14.5466 2 11.9283 2C8.11007 2 4.79884 4.1685 3.13379 7.3455Z" fill="#FF3D3D"/>
<path d="M11.9287 21.9999C14.4964 21.9999 16.8294 21.0114 18.5934 19.4039L15.5168 16.7849C14.4852 17.574 13.2247 18.0009 11.9287 17.9999C9.34317 17.9999 7.14779 16.3414 6.32073 14.0269L3.0791 16.5394C4.72427 19.7779 8.06531 21.9999 11.9287 21.9999Z" fill="#3CD039"/>
<path d="M21.676 10.0415H20.8753V10H11.9288V14H17.5467C17.1546 15.1082 16.4484 16.0766 15.5153 16.7855L15.5168 16.7845L18.5935 19.4035C18.3758 19.6025 21.8694 17 21.8694 12C21.8694 11.3295 21.8008 10.675 21.676 10.0415Z" fill="#1976D2"/>
</svg>
