<svg width="30" height="30" viewBox="0 0 30 30" fill="none" xmlns="http://www.w3.org/2000/svg">
<path fill-rule="evenodd" clip-rule="evenodd" d="M29.0726 9.76159C27.8711 6.554 25.6063 3.8532 22.6545 2.10779C19.7028 0.362373 16.2416 -0.32261 12.8459 0.166613C9.45016 0.655836 6.32432 2.28982 3.98754 4.79717C1.65076 7.30451 0.243675 10.5343 0 13.9501H6.35092C6.56138 12.233 7.28062 10.6178 8.41651 9.3112C9.55241 8.00465 11.0532 7.06631 12.7267 6.6164C14.4002 6.16648 16.1702 6.22547 17.8099 6.78581C19.4496 7.34615 20.8843 8.38232 21.9304 9.76159H24.4435C23.4123 7.91057 21.8582 6.40336 19.9747 5.42778C18.0913 4.4522 15.9619 4.0514 13.8519 4.27531C11.7419 4.49923 9.7445 5.33796 8.1087 6.687C6.4729 8.03603 5.27101 9.83571 4.6528 11.8618H2.45976C3.1156 9.2603 4.56785 6.9277 6.6143 5.18875C8.66075 3.44981 11.1995 2.39108 13.8772 2.15998C16.5548 1.92888 19.238 2.53692 21.5531 3.89943C23.8682 5.26194 25.7001 7.3111 26.7936 9.76159H29.0726Z" fill="#604AED"/>
<path fill-rule="evenodd" clip-rule="evenodd" d="M26.7936 20.2447C25.7004 22.6952 23.8687 24.7445 21.5538 26.1072C19.2389 27.47 16.5558 28.0783 13.8782 27.8475C11.2007 27.6167 8.6618 26.5584 6.61516 24.8197C4.56853 23.0811 3.11598 20.7488 2.45976 18.1475H4.64984C5.26841 20.1734 6.47057 21.9728 8.10654 23.3215C9.74251 24.6702 11.7399 25.5086 13.8499 25.7322C15.9599 25.9558 18.0892 25.5547 19.9724 24.5789C21.8557 23.6031 23.4096 22.0958 24.4405 20.2447H21.9304C20.8847 21.6255 19.4496 22.663 17.809 23.224C16.1685 23.7849 14.3974 23.8438 12.7231 23.393C11.0488 22.9423 9.54761 22.0024 8.41222 20.6941C7.27684 19.3858 6.55903 17.7686 6.35092 16.0503H0C0.23957 19.4684 1.64436 22.7016 3.9807 25.2121C6.31704 27.7225 9.44408 29.359 12.8417 29.8492C16.2393 30.3394 19.7026 29.6537 22.6555 27.9064C25.6085 26.159 27.8731 23.4552 29.0726 20.2447H26.7936Z" fill="#604AED"/>
<path d="M14.9569 20.1025C17.7802 20.1025 20.069 17.8181 20.069 15C20.069 12.1819 17.7802 9.89746 14.9569 9.89746C12.1335 9.89746 9.84473 12.1819 9.84473 15C9.84473 17.8181 12.1335 20.1025 14.9569 20.1025Z" fill="#604AED"/>
</svg>
