<svg width="1122" height="903" viewBox="0 0 1122 903" fill="none" xmlns="http://www.w3.org/2000/svg">
<path d="M332.808 342.416L496.083 441.595L332.815 540.774L169.541 441.595L332.808 342.416ZM928.473 197.306L719.84 70.5584L511.209 197.306L332.808 305.676L169.534 206.497L347.935 98.1094L541.439 -19.431L511.202 -37.8103L332.815 70.5584L139.295 -47L-69.3427 79.7481L-39.0966 98.1279L139.295 -10.2408L302.576 88.9377L109.051 206.497L302.569 324.055L139.295 423.234L-39.0966 314.847L-232.61 197.306L-262.849 215.668L-69.3357 333.226L109.056 441.595L-54.2232 540.792L-247.736 423.234L-441.248 540.774L-604.522 441.595L-426.13 333.226L-456.367 314.865L-665 441.595L-441.248 577.515L-247.736 459.974L-84.4623 559.153L-277.968 676.694L-69.3357 803.442L-39.0966 785.081L-217.49 676.694L-39.0966 568.343L139.295 459.956L302.576 559.153L109.051 676.712L302.569 794.252L124.176 902.621L154.415 921L332.808 812.631L511.209 921L541.446 902.639L347.928 785.081L169.534 676.712L332.815 577.515L511.209 685.883L704.727 803.442L734.967 785.081L556.566 676.694L719.84 577.515L898.241 685.902L928.48 667.522L719.84 540.792L526.327 658.332L363.055 559.153L541.439 450.785L719.84 342.416L898.241 450.785L1091.76 568.343L1122 549.964L943.598 441.595L1121.98 333.226L1091.74 314.865L913.36 423.234L719.84 305.676L526.322 423.234L363.048 324.055L541.446 215.668L719.84 107.299L898.234 215.668L928.473 197.306Z" fill="#907EFD" fill-opacity="0.17"/>
</svg>
