<svg width="148" height="50" viewBox="0 0 148 50" fill="none" xmlns="http://www.w3.org/2000/svg">
<path d="M6.03733 0H141.963C145.279 0 147.973 2.69 147.973 6V44C147.973 47.31 145.279 50 141.963 50H6.03733C2.72182 50 0.0273438 47.31 0.0273438 44V6C0.0273438 2.69 2.72182 0 6.03733 0Z" fill="white"/>
<path d="M32.4108 23.8594C32.3807 20.2794 35.3456 18.5394 35.4759 18.4594C33.7931 16.0194 31.1887 15.6794 30.2772 15.6494C28.0936 15.4194 25.9701 16.9594 24.8582 16.9594C23.7263 16.9594 22.0035 15.6794 20.1604 15.7094C17.7865 15.7494 15.5528 17.1194 14.3408 19.2594C11.8266 23.6094 13.6997 30.0094 16.1137 33.5294C17.3257 35.2494 18.728 37.1794 20.5811 37.1094C22.3841 37.0394 23.0653 35.9594 25.2389 35.9594C27.4025 35.9594 28.0335 37.1094 29.9166 37.0694C31.8599 37.0394 33.0719 35.3394 34.2438 33.5994C35.6361 31.6294 36.1971 29.6794 36.2171 29.5794C36.167 29.5594 32.4508 28.1394 32.4108 23.8594Z" fill="#191F2B"/>
<path d="M28.8545 13.3398C29.8261 12.1298 30.4872 10.4798 30.3069 8.7998C28.9046 8.8598 27.1416 9.7698 26.13 10.9598C25.2385 12.0098 24.4371 13.7198 24.6375 15.3298C26.2201 15.4498 27.8428 14.5298 28.8545 13.3398Z" fill="#191F2B"/>
<path d="M58.5745 36.8599H56.0503L54.668 32.5198H49.86L48.5478 36.8599H46.0938L50.8517 22.0898H53.7966L58.5745 36.8599ZM54.2573 30.6998L53.0052 26.8498C52.875 26.4498 52.6246 25.5298 52.264 24.0698H52.2139C52.0637 24.6998 51.8333 25.6298 51.5128 26.8498L50.2807 30.6998H54.2573Z" fill="#191F2B"/>
<path d="M70.8044 31.4102C70.8044 33.2202 70.3136 34.6502 69.3219 35.7002C68.4405 36.6402 67.3386 37.1002 66.0365 37.1002C64.6241 37.1002 63.6125 36.6002 62.9914 35.5902V41.1802H60.6175V29.7102C60.6175 28.5702 60.5874 27.4102 60.5273 26.2102H62.6108L62.741 27.9002H62.7811C63.5724 26.6302 64.7744 25.9902 66.377 25.9902C67.6391 25.9902 68.6809 26.4902 69.5223 27.4802C70.3837 28.4802 70.8044 29.7802 70.8044 31.4102ZM68.3904 31.4902C68.3904 30.4502 68.16 29.6002 67.6892 28.9302C67.1784 28.2302 66.4872 27.8802 65.6258 27.8802C65.0448 27.8802 64.514 28.0802 64.0332 28.4602C63.5624 28.8502 63.2418 29.3502 63.1016 29.9802C63.0315 30.2702 62.9914 30.5102 62.9914 30.7002V32.4802C62.9914 33.2502 63.2318 33.9102 63.7026 34.4402C64.1734 34.9702 64.7944 35.2402 65.5557 35.2402C66.4472 35.2402 67.1383 34.8902 67.6391 34.2102C68.14 33.5202 68.3904 32.6202 68.3904 31.4902Z" fill="#191F2B"/>
<path d="M83.0652 31.4102C83.0652 33.2202 82.5743 34.6502 81.5827 35.7002C80.7012 36.6402 79.5994 37.1002 78.2972 37.1002C76.8849 37.1002 75.8732 36.6002 75.2522 35.5902V41.1802H72.8782V29.7102C72.8782 28.5702 72.8482 27.4102 72.7881 26.2102H74.8715L75.0018 27.9002H75.0418C75.8331 26.6302 77.0351 25.9902 78.6378 25.9902C79.8999 25.9902 80.9416 26.4902 81.783 27.4802C82.6445 28.4802 83.0652 29.7802 83.0652 31.4102ZM80.6511 31.4902C80.6511 30.4502 80.4208 29.6002 79.95 28.9302C79.4391 28.2302 78.748 27.8802 77.8866 27.8802C77.3056 27.8802 76.7747 28.0802 76.2939 28.4602C75.8231 28.8502 75.5126 29.3502 75.3624 29.9802C75.2922 30.2702 75.2522 30.5102 75.2522 30.7002V32.4802C75.2522 33.2502 75.4926 33.9102 75.9634 34.4402C76.4341 34.9702 77.0552 35.2402 77.8164 35.2402C78.7079 35.2402 79.4091 34.8902 79.8999 34.2102C80.4107 33.5202 80.6511 32.6202 80.6511 31.4902Z" fill="#191F2B"/>
<path d="M96.7883 32.7199C96.7883 33.9799 96.3476 34.9999 95.4761 35.7899C94.5145 36.6499 93.1723 37.0799 91.4494 37.0799C89.8568 37.0799 88.5846 36.7699 87.623 36.1599L88.174 34.1899C89.2157 34.7999 90.3576 35.1099 91.5997 35.1099C92.4911 35.1099 93.1923 34.9099 93.6831 34.5099C94.184 34.1099 94.4344 33.5699 94.4344 32.8999C94.4344 32.2999 94.224 31.7999 93.8234 31.3899C93.4127 30.9799 92.7315 30.5999 91.78 30.2499C89.1656 29.2799 87.8735 27.8699 87.8735 26.0199C87.8735 24.8099 88.3342 23.8199 89.2457 23.0399C90.1573 22.2699 91.3693 21.8799 92.8818 21.8799C94.224 21.8799 95.3459 22.1099 96.2374 22.5799L95.6364 24.4999C94.795 24.0499 93.8534 23.8199 92.7916 23.8199C91.9603 23.8199 91.2992 24.0299 90.8284 24.4299C90.4377 24.7999 90.2374 25.2399 90.2374 25.7699C90.2374 26.3499 90.4678 26.8399 90.9185 27.2099C91.3092 27.5599 92.0304 27.9399 93.0721 28.3499C94.3442 28.8599 95.2758 29.4599 95.8768 30.1499C96.4878 30.8399 96.7883 31.6999 96.7883 32.7199Z" fill="#191F2B"/>
<path d="M104.641 27.9896H102.027V33.1596C102.027 34.4696 102.488 35.1296 103.409 35.1296C103.83 35.1296 104.18 35.0896 104.461 35.0196L104.531 36.8196C104.06 36.9896 103.449 37.0796 102.688 37.0796C101.746 37.0796 101.025 36.7896 100.494 36.2196C99.9634 35.6496 99.703 34.6896 99.703 33.3496V27.9796H98.1504V26.2096H99.703V24.2596L102.027 23.5596V26.2096H104.641V27.9896Z" fill="#191F2B"/>
<path d="M116.401 31.45C116.401 33.09 115.93 34.43 114.998 35.48C114.017 36.56 112.714 37.1 111.092 37.1C109.529 37.1 108.277 36.58 107.345 35.55C106.414 34.52 105.953 33.21 105.953 31.63C105.953 29.98 106.434 28.63 107.386 27.58C108.347 26.53 109.639 26 111.262 26C112.825 26 114.087 26.52 115.038 27.56C115.95 28.56 116.401 29.86 116.401 31.45ZM113.946 31.5C113.946 30.52 113.736 29.69 113.315 28.99C112.815 28.14 112.103 27.72 111.182 27.72C110.23 27.72 109.499 28.14 109.008 28.99C108.577 29.69 108.377 30.54 108.377 31.55C108.377 32.53 108.588 33.37 109.008 34.06C109.519 34.91 110.24 35.33 111.162 35.33C112.063 35.33 112.774 34.9 113.295 34.04C113.726 33.32 113.946 32.48 113.946 31.5Z" fill="#191F2B"/>
<path d="M124.113 28.2902C123.883 28.2502 123.632 28.2302 123.362 28.2302C122.53 28.2302 121.879 28.5402 121.429 29.1702C121.038 29.7202 120.838 30.4302 120.838 31.2702V36.8602H118.464V29.5602C118.464 28.3302 118.444 27.2102 118.394 26.2102H120.457L120.547 28.2502H120.617C120.868 27.5502 121.258 26.9802 121.799 26.5602C122.33 26.1802 122.901 25.9902 123.512 25.9902C123.732 25.9902 123.933 26.0102 124.103 26.0302L124.113 28.2902Z" fill="#191F2B"/>
<path d="M134.711 31.03C134.711 31.45 134.681 31.81 134.621 32.1H127.509C127.539 33.15 127.88 33.96 128.541 34.51C129.142 35 129.913 35.25 130.865 35.25C131.917 35.25 132.878 35.08 133.74 34.75L134.11 36.39C133.099 36.83 131.907 37.05 130.534 37.05C128.882 37.05 127.579 36.56 126.638 35.59C125.696 34.62 125.226 33.31 125.226 31.68C125.226 30.08 125.666 28.74 126.548 27.67C127.469 26.53 128.711 25.96 130.274 25.96C131.806 25.96 132.978 26.53 133.76 27.67C134.391 28.59 134.711 29.7 134.711 31.03ZM132.448 30.42C132.468 29.72 132.307 29.11 131.987 28.6C131.576 27.94 130.945 27.61 130.104 27.61C129.332 27.61 128.701 27.93 128.221 28.57C127.83 29.08 127.589 29.7 127.519 30.41L132.448 30.42Z" fill="#191F2B"/>
<path d="M53.1158 16.8098H51.8737L51.1926 14.6798H48.8287L48.1776 16.8098H46.9756L49.3095 9.5498H50.7519L53.1158 16.8098ZM50.9822 13.7798L50.3712 11.8798C50.3111 11.6898 50.1909 11.2298 50.0006 10.5098H49.9806C49.9004 10.8198 49.8003 11.2698 49.63 11.8798L49.029 13.7798H50.9822Z" fill="#191F2B"/>
<path d="M58.9651 11.5703L56.9818 16.8103H55.8499L53.9268 11.5703H55.1788L56.0703 14.3403C56.2206 14.8003 56.3508 15.2403 56.4509 15.6603H56.481C56.5711 15.2803 56.7014 14.8403 56.8616 14.3403L57.7431 11.5703H58.9651Z" fill="#191F2B"/>
<path d="M63.1929 16.8095L63.1027 16.2095H63.0727C62.7121 16.6895 62.2013 16.9295 61.5402 16.9295C60.5986 16.9295 59.9375 16.2695 59.9375 15.3895C59.9375 14.0995 61.0594 13.4295 63.0026 13.4295V13.3295C63.0026 12.6395 62.632 12.2995 61.9108 12.2995C61.3899 12.2995 60.9392 12.4295 60.5385 12.6895L60.2981 11.9295C60.7789 11.6295 61.3899 11.4795 62.1011 11.4795C63.4734 11.4795 64.1645 12.1995 64.1645 13.6495V15.5795C64.1645 16.1095 64.1845 16.5195 64.2446 16.8295L63.1929 16.8095ZM63.0326 14.1995C61.7405 14.1995 61.0894 14.5095 61.0894 15.2595C61.0894 15.8095 61.42 16.0795 61.8907 16.0795C62.4817 16.0795 63.0326 15.6295 63.0326 15.0095V14.1995Z" fill="#191F2B"/>
<path d="M66.7586 10.7103C66.3679 10.7103 66.0674 10.4103 66.0674 10.0103C66.0674 9.61031 66.3779 9.32031 66.7786 9.32031C67.1793 9.32031 67.4998 9.61031 67.4898 10.0103C67.4898 10.4303 67.1893 10.7103 66.7586 10.7103ZM66.1976 11.5703H67.3596V16.8003H66.1976V11.5703Z" fill="#191F2B"/>
<path d="M69.4326 9.16992H70.5946V16.7999H69.4326V9.16992Z" fill="#191F2B"/>
<path d="M75.5435 16.8097L75.4533 16.2097H75.4233C75.0627 16.6897 74.5518 16.9297 73.8907 16.9297C72.9492 16.9297 72.2881 16.2697 72.2881 15.3897C72.2881 14.0997 73.41 13.4297 75.3532 13.4297V13.3297C75.3532 12.6397 74.9826 12.2997 74.2614 12.2997C73.7405 12.2997 73.2898 12.4297 72.8891 12.6897L72.6487 11.9197C73.1295 11.6197 73.7405 11.4697 74.4517 11.4697C75.824 11.4697 76.5151 12.1897 76.5151 13.6397V15.5697C76.5151 16.0997 76.5351 16.5097 76.5852 16.8197H75.5435V16.8097ZM75.3832 14.1997C74.0911 14.1997 73.44 14.5097 73.44 15.2597C73.44 15.8097 73.7706 16.0797 74.2413 16.0797C74.8323 16.0797 75.3832 15.6297 75.3832 15.0097V14.1997Z" fill="#191F2B"/>
<path d="M81.2423 16.9299C80.5011 16.9299 79.9502 16.6199 79.5896 15.9999H79.5696L79.4995 16.8099H78.5078C78.5379 16.3899 78.5479 15.9199 78.5479 15.3999V9.16992H79.7198V12.3399H79.7399C80.0904 11.7599 80.6414 11.4699 81.4126 11.4699C82.6747 11.4699 83.5562 12.5499 83.5562 14.1199C83.5562 15.7399 82.5746 16.9299 81.2423 16.9299ZM81.002 12.3799C80.3308 12.3799 79.7198 12.9599 79.7198 13.7699V14.6899C79.7198 15.4099 80.2707 15.9999 80.9819 15.9999C81.8534 15.9999 82.3742 15.2899 82.3742 14.1599C82.3742 13.0999 81.8333 12.3799 81.002 12.3799Z" fill="#191F2B"/>
<path d="M85.2793 9.16992H86.4412V16.7999H85.2793V9.16992Z" fill="#191F2B"/>
<path d="M92.7817 14.4702H89.2859C89.3059 15.4602 89.967 16.0202 90.9386 16.0202C91.4595 16.0202 91.9303 15.9302 92.351 15.7702L92.5313 16.5802C92.0405 16.8002 91.4595 16.9002 90.7784 16.9002C89.1357 16.9002 88.1641 15.8702 88.1641 14.2602C88.1641 12.6602 89.1557 11.4502 90.6482 11.4502C91.9804 11.4502 92.8318 12.4402 92.8318 13.9402C92.8318 14.1502 92.8217 14.3302 92.7817 14.4702ZM91.7199 13.6402C91.7199 12.8302 91.3093 12.2602 90.568 12.2602C89.8969 12.2602 89.3761 12.8402 89.2959 13.6402H91.7199Z" fill="#191F2B"/>
<path d="M99.8435 16.9297C98.311 16.9297 97.3193 15.7897 97.3193 14.2397C97.3193 12.6197 98.331 11.4697 99.9337 11.4697C101.446 11.4697 102.458 12.5597 102.458 14.1497C102.458 15.7797 101.416 16.9297 99.8435 16.9297ZM99.8936 12.3197C99.0522 12.3197 98.5113 13.1097 98.5113 14.1997C98.5113 15.2797 99.0622 16.0597 99.8836 16.0597C100.705 16.0597 101.256 15.2197 101.256 14.1697C101.246 13.1097 100.715 12.3197 99.8936 12.3197Z" fill="#191F2B"/>
<path d="M108.718 16.81H107.557V13.8C107.557 12.87 107.196 12.41 106.495 12.41C105.804 12.41 105.333 13 105.333 13.69V16.8H104.171V13.07C104.171 12.61 104.161 12.11 104.131 11.57H105.153L105.203 12.38H105.233C105.543 11.82 106.184 11.46 106.895 11.46C107.997 11.46 108.718 12.3 108.718 13.67V16.81Z" fill="#191F2B"/>
<path d="M116.341 12.4495H115.059V14.9895C115.059 15.6395 115.29 15.9595 115.74 15.9595C115.941 15.9595 116.121 15.9395 116.261 15.9095L116.291 16.7895C116.061 16.8795 115.76 16.9195 115.39 16.9195C114.468 16.9195 113.927 16.4095 113.927 15.0895V12.4495H113.166V11.5795H113.927V10.6195L115.069 10.2695V11.5695H116.351V12.4495" fill="#191F2B"/>
<path d="M122.511 16.8099H121.349V13.8199C121.349 12.8799 120.989 12.4099 120.288 12.4099C119.687 12.4099 119.126 12.8199 119.126 13.6499V16.7999H117.964V9.16992H119.126V12.3099H119.146C119.516 11.7399 120.037 11.4599 120.718 11.4599C121.83 11.4599 122.511 12.3199 122.511 13.6899V16.8099Z" fill="#191F2B"/>
<path d="M128.461 14.4702H124.966C124.986 15.4602 125.647 16.0202 126.618 16.0202C127.139 16.0202 127.61 15.9302 128.031 15.7702L128.211 16.5802C127.72 16.8002 127.139 16.9002 126.458 16.9002C124.815 16.9002 123.844 15.8702 123.844 14.2602C123.844 12.6602 124.835 11.4502 126.328 11.4502C127.66 11.4502 128.511 12.4402 128.511 13.9402C128.511 14.1502 128.501 14.3302 128.461 14.4702ZM127.4 13.6402C127.4 12.8302 126.989 12.2602 126.248 12.2602C125.577 12.2602 125.046 12.8402 124.976 13.6402H127.4Z" fill="#191F2B"/>
</svg>
