<svg width="48" height="48" viewBox="0 0 48 48" fill="none" xmlns="http://www.w3.org/2000/svg">
<path d="M39 22C34.03 22 30 26.03 30 31C30 35.97 34.03 40 39 40C43.97 40 48 35.97 48 31C48 26.03 43.97 22 39 22ZM38.062 34.968L34.686 31.694L36.078 30.3L38.06 32.18L42.292 27.842L43.684 29.234L38.062 34.968ZM8 30H18V32H8V30ZM24 28H8V26H24V28ZM27.004 36H5C4.448 36 4 35.552 4 35V22H29.64C32.008 19.54 35.324 18 39 18C40.772 18 42.458 18.358 44 19.002V12C44 9.792 42.208 8 40 8H4C1.792 8 0 9.792 0 12V36C0 38.208 1.792 40 4 40H29.64C28.534 38.848 27.628 37.498 27.004 36ZM4 13C4 12.448 4.448 12 5 12H39C39.552 12 40 12.448 40 13V16H4V13Z" fill="#80299F"/>
</svg>
