<svg width="48" height="48" viewBox="0 0 48 48" fill="none" xmlns="http://www.w3.org/2000/svg">
<path fill-rule="evenodd" clip-rule="evenodd" d="M25.3325 45.816L19.7585 35.058L16.4905 36.658C12.9445 38.378 5.72447 24.276 9.19247 22.418L12.4885 20.794L6.96047 10L3.62647 11.646C-7.77753 17.59 10.3285 52.784 21.9925 47.452C22.1845 47.366 25.3205 45.822 25.3325 45.816ZM35.1365 40.61L37.2185 44.03C35.1805 45.378 32.9245 46.424 30.5165 47.104L28.6485 43.456C30.9985 42.896 33.1885 41.92 35.1365 40.61ZM40.9805 34.566L44.7445 36.07C43.3885 38.394 41.6525 40.468 39.6245 42.212L37.5105 38.74C38.8465 37.516 40.0165 36.11 40.9805 34.566ZM42.3785 31.894C43.4225 29.472 44.0005 26.802 44.0005 24C44.0005 12.962 35.0385 4 24.0005 4C19.0065 4 14.4385 5.834 10.9325 8.864L9.06647 5.216C13.1665 1.952 18.3565 0 24.0005 0C37.2465 0 48.0005 10.754 48.0005 24C48.0005 27.328 47.3205 30.498 46.0945 33.38L42.3785 31.894ZM35.3565 30H32.4805V26.9H26.7205V24.922L31.6405 17.002H35.3565V24.622H36.9165V26.9H35.3565V30ZM25.2165 30H16.0005V28.162L17.6805 26.642C20.5205 24.102 21.9005 22.642 21.9405 21.12C21.9405 20.06 21.3005 19.22 19.8005 19.22C18.6805 19.22 17.7005 19.78 17.0205 20.3L16.1605 18.122C17.1405 17.382 18.6605 16.782 20.4205 16.782C23.3585 16.782 24.9765 18.5 24.9765 20.86C24.9765 23.042 23.3985 24.782 21.5205 26.462L20.3205 27.462V27.502H25.2165V30ZM32.4805 24.622V21.742C32.4805 20.96 32.5205 20.16 32.5805 19.32H32.5005C32.0805 20.16 31.7405 20.92 31.3005 21.742L29.5605 24.582V24.622H32.4805Z" fill="#D2C33D"/>
</svg>
